<svg xmlns="http://www.w3.org/2000/svg" xmlns:xlink="http://www.w3.org/1999/xlink" id="processonSvg1000" viewBox="102.00285339355469 138.01705169677734 657.5 315.125" width="657.5" height="315.125"><defs id="ProcessOnDefs1001"><marker id="ProcessOnMarker1022" markerUnits="userSpaceOnUse" orient="auto" markerWidth="16.23606797749979" markerHeight="10.550836550532098" viewBox="-1.0 -1.3763819204711736 16.23606797749979 10.550836550532098" refX="-1.0" refY="3.8990363547948754"><path id="ProcessOnPath1023" d="M12.0 3.8990363547948754L0.0 7.798072709589751V0.0Z" stroke="#323232" stroke-width="2.0" fill="#323232" transform="matrix(1.0,0.0,0.0,1.0,0.0,0.0)"/></marker><marker id="ProcessOnMarker1049" markerUnits="userSpaceOnUse" orient="auto" markerWidth="16.23606797749979" markerHeight="10.550836550532098" viewBox="-1.0 -1.3763819204711736 16.23606797749979 10.550836550532098" refX="-1.0" refY="3.8990363547948754"><path id="ProcessOnPath1050" d="M12.0 3.8990363547948754L0.0 7.798072709589751V0.0Z" stroke="#323232" stroke-width="2.0" fill="#323232" transform="matrix(1.0,0.0,0.0,1.0,0.0,0.0)"/></marker><marker id="ProcessOnMarker1053" markerUnits="userSpaceOnUse" orient="auto" markerWidth="16.23606797749979" markerHeight="10.550836550532098" viewBox="-1.0 -1.3763819204711736 16.23606797749979 10.550836550532098" refX="-1.0" refY="3.8990363547948754"><path id="ProcessOnPath1054" d="M12.0 3.8990363547948754L0.0 7.798072709589751V0.0Z" stroke="#323232" stroke-width="2.0" fill="#323232" transform="matrix(1.0,0.0,0.0,1.0,0.0,0.0)"/></marker><marker id="ProcessOnMarker1057" markerUnits="userSpaceOnUse" orient="auto" markerWidth="16.23606797749979" markerHeight="10.550836550532098" viewBox="-1.0 -1.3763819204711736 16.23606797749979 10.550836550532098" refX="-1.0" refY="3.8990363547948754"><path id="ProcessOnPath1058" d="M12.0 3.8990363547948754L0.0 7.798072709589751V0.0Z" stroke="#323232" stroke-width="2.0" fill="#323232" transform="matrix(1.0,0.0,0.0,1.0,0.0,0.0)"/></marker></defs><g id="ProcessOnG1002"><path id="ProcessOnPath1003" d="M102.00285339355469 138.01705169677734H759.5028533935547V453.14205169677734H102.00285339355469V138.01705169677734Z" fill="none"/><g id="ProcessOnG1004"><g id="ProcessOnG1005" transform="matrix(1.0,0.0,0.0,1.0,642.5028533935547,169.01705169677734)" opacity="1.0"><g id="ProcessOnG1007" transform="matrix(1.0,0.0,0.0,1.0,0.0,0.0)"> <g> <path fill="#9BA5A8" d="M40.746,46.869h-0.62L0.073,46.531l0.395,0.507l0.791,0.847C1.314,48,1.54,48,1.708,48h37.177H39.9h0.168 h0.793h36.441c0.168,0,0.396-0.115,0.508-0.227l0.791-0.679l0.395-0.395L40.746,46.869z"/> <path fill="#778184" d="M43.174,46.869c0,0-0.283,0.563-0.619,0.563H36.63c-0.339,0-0.621-0.563-0.621-0.563H43.174z"/> <path fill="#32475A" d="M68.502,36.141H11.073c-0.959,0-1.467-0.508-1.467-1.412V0.958C9.607,0.395,10.001,0,10.566,0h58.5 c0.51,0,0.902,0.395,0.902,0.845v33.826C69.969,35.633,69.46,36.141,68.502,36.141z"/> <path fill="#BBC4CB" d="M78.432,46.869c-25.558,0-52.294,0-77.852,0c-0.62,0-0.789-0.621-0.281-1.184 c2.481-2.938,5.472-5.763,7.954-8.699c0.452-0.563,1.241-0.848,1.748-0.848c19.689,0,39.377,0,59.063,0 c0.511,0,1.24,0.228,1.75,0.789c2.481,2.938,5.473,5.932,7.955,8.867C79.164,46.361,79.053,46.869,78.432,46.869z"/> <path fill="#FFFFFF" d="M67.6,34.445H11.187c0,0,0-1.186,0-1.242V3.387c0,0,0.733,0,0.791,0H67.6v29.816 C67.6,33.261,67.6,34.445,67.6,34.445z"/> <circle fill="#476472" cx="39.505" cy="1.58" r="0.564"/> <g> <path fill="#32475A" d="M13.838,37.328c-0.057,0.054-0.17,0.109-0.226,0.109c-1.015,0-1.974,0-2.99,0 c-0.056,0-0.056-0.057,0-0.109c0.112-0.115,0.17-0.227,0.283-0.398c0.056-0.055,0.168-0.111,0.226-0.111c0.958,0,1.974,0,2.934,0 c0.055,0,0.055,0.058,0.055,0.111C14.007,37.044,13.894,37.155,13.838,37.328z"/> <path fill="#32475A" d="M18.181,37.328c-0.055,0.054-0.113,0.109-0.224,0.109c-1.017,0-1.976,0-2.991,0 c-0.055,0-0.113-0.057-0.055-0.109c0.055-0.115,0.168-0.227,0.224-0.398c0.057-0.055,0.17-0.111,0.226-0.111 c0.959,0,1.975,0,2.934,0c0.057,0,0.113,0.058,0.057,0.111C18.351,37.044,18.294,37.155,18.181,37.328z"/> <path fill="#32475A" d="M22.3,37.328c-0.056,0.054-0.113,0.109-0.168,0.109c-1.017,0-1.974,0-2.991,0 c-0.055,0-0.113-0.057-0.055-0.109c0.055-0.115,0.112-0.227,0.226-0.398c0.056-0.055,0.113-0.111,0.168-0.111 c0.959,0,1.974,0,2.933,0c0.058,0,0.113,0.058,0.058,0.111C22.412,37.044,22.357,37.155,22.3,37.328z"/> <path fill="#32475A" d="M26.7,37.328c0,0.054-0.113,0.109-0.169,0.109c-1.016,0-1.974,0-2.991,0c-0.055,0-0.113-0.057-0.055-0.109 c0.055-0.115,0.113-0.227,0.168-0.398c0.057-0.055,0.113-0.111,0.17-0.111c0.958,0,1.974,0,2.934,0 c0.055,0,0.113,0.058,0.055,0.111C26.757,37.044,26.757,37.155,26.7,37.328z"/> <path fill="#32475A" d="M31.1,37.328c0,0.054-0.113,0.109-0.168,0.109c-1.015,0-1.974,0-2.991,0c-0.055,0-0.112-0.057-0.055-0.109 c0.055-0.115,0.055-0.227,0.113-0.398c0-0.055,0.113-0.111,0.168-0.111c0.959,0,1.974,0,2.934,0c0.057,0,0.113,0.058,0.113,0.111 C31.157,37.044,31.1,37.155,31.1,37.328z"/> <path fill="#32475A" d="M35.445,37.328c0,0.054-0.058,0.109-0.171,0.109c-1.015,0-1.974,0-2.989,0 c-0.055,0-0.113-0.057-0.113-0.109c0-0.115,0.058-0.227,0.058-0.398c0-0.055,0.055-0.111,0.168-0.111c0.959,0,1.974,0,2.933,0 c0.056,0,0.113,0.058,0.113,0.111C35.5,37.044,35.5,37.155,35.445,37.328z"/> <path fill="#32475A" d="M39.563,37.328c0,0.054-0.058,0.109-0.113,0.109c-1.017,0-1.974,0-2.991,0 c-0.056,0-0.113-0.057-0.113-0.109c0-0.115,0-0.227,0.057-0.398c0-0.055,0.056-0.111,0.113-0.111c0.959,0,1.974,0,2.934,0 c0.055,0,0.113,0.058,0.113,0.111C39.563,37.044,39.563,37.155,39.563,37.328z"/> <path fill="#32475A" d="M43.963,37.328c0,0.054-0.059,0.109-0.115,0.109c-1.015,0-1.972,0-2.986,0 c-0.057,0-0.114-0.057-0.114-0.109c0-0.115,0-0.227,0-0.398c0-0.055,0.058-0.111,0.114-0.111c0.957,0,1.973,0,2.935,0 c0.054,0,0.11,0.058,0.11,0.111C43.906,37.044,43.906,37.155,43.963,37.328z"/> <path fill="#32475A" d="M48.307,37.328c0,0.054,0,0.109-0.111,0.109c-1.016,0-1.977,0-2.99,0c-0.059,0-0.115-0.057-0.169-0.109 c0-0.115-0.058-0.227-0.058-0.398c0-0.055,0.058-0.111,0.11-0.111c0.961,0,1.976,0,2.935,0c0.057,0,0.115,0.058,0.172,0.111 C48.248,37.044,48.307,37.155,48.307,37.328z"/> <path fill="#32475A" d="M52.425,37.328c0,0.054,0,0.109-0.056,0.109c-1.016,0-1.977,0-2.991,0c-0.058,0-0.11-0.057-0.169-0.109 c0-0.115-0.057-0.227-0.057-0.398c0-0.055,0-0.111,0.113-0.111c0.957,0,1.973,0,2.935,0c0.054,0,0.169,0.058,0.169,0.111 C52.369,37.044,52.369,37.155,52.425,37.328z"/> <path fill="#32475A" d="M56.826,37.328c0.054,0.054,0,0.109-0.059,0.109c-1.015,0-1.976,0-2.99,0 c-0.057,0-0.168-0.057-0.168-0.109c-0.059-0.115-0.059-0.227-0.114-0.398c0-0.055,0-0.111,0.057-0.111c0.962,0,1.978,0,2.935,0 c0.058,0,0.168,0.058,0.168,0.111C56.711,37.044,56.77,37.155,56.826,37.328z"/> <path fill="#32475A" d="M61.169,37.328c0.058,0.054,0,0.109-0.058,0.109c-1.016,0-1.973,0-2.991,0 c-0.054,0-0.168-0.057-0.168-0.109c-0.058-0.115-0.111-0.227-0.169-0.398c-0.057-0.055,0-0.111,0.058-0.111 c0.957,0,1.972,0,2.935,0c0.054,0,0.168,0.058,0.168,0.111C61.055,37.044,61.111,37.155,61.169,37.328z"/> <path fill="#32475A" d="M65.285,37.328c0.058,0.054,0.058,0.109-0.057,0.109c-1.016,0-1.974,0-2.987,0 c-0.058,0-0.169-0.057-0.228-0.109c-0.057-0.115-0.113-0.227-0.226-0.398c-0.058-0.055,0-0.111,0.058-0.111 c0.957,0,1.973,0,2.934,0c0.055,0,0.169,0.058,0.227,0.111C65.117,37.044,65.229,37.155,65.285,37.328z"/> <path fill="#32475A" d="M69.686,37.328c0.059,0.054,0.059,0.109,0,0.109c-1.015,0-1.973,0-2.99,0 c-0.053,0-0.168-0.057-0.223-0.109c-0.058-0.115-0.173-0.227-0.226-0.398c-0.058-0.055-0.058-0.111,0.053-0.111 c0.962,0,1.978,0,2.935,0c0.058,0,0.173,0.058,0.227,0.111C69.518,37.044,69.575,37.155,69.686,37.328z"/> <path fill="#32475A" d="M12.992,38.568c-0.057,0.111-0.17,0.17-0.282,0.17c-1.017,0-2.031,0-3.046,0 c-0.058,0-0.113-0.059-0.058-0.17c0.171-0.226,0.339-0.45,0.507-0.619c0.058-0.116,0.17-0.174,0.284-0.174 c0.958,0,1.974,0,2.934,0c0.055,0,0.113,0.058,0.055,0.174C13.273,38.118,13.105,38.344,12.992,38.568z"/> <path fill="#32475A" d="M17.505,38.568c-0.058,0.111-0.17,0.17-0.226,0.17c-1.015,0-2.032,0-3.046,0 c-0.055,0-0.113-0.059-0.055-0.17c0.113-0.226,0.281-0.45,0.395-0.619c0.055-0.116,0.168-0.174,0.226-0.174 c0.959,0,1.974,0,2.934,0c0.055,0,0.113,0.058,0.055,0.174C17.731,38.118,17.618,38.344,17.505,38.568z"/> <path fill="#32475A" d="M21.737,38.568c-0.057,0.111-0.113,0.17-0.226,0.17c-1.017,0-2.032,0-3.047,0 c-0.057,0-0.113-0.059-0.057-0.17c0.113-0.226,0.226-0.45,0.339-0.619c0.056-0.116,0.168-0.174,0.226-0.174 c0.959,0,1.974,0,2.934,0c0.055,0,0.112,0.058,0.055,0.174C21.906,38.118,21.847,38.344,21.737,38.568z"/> <path fill="#32475A" d="M26.25,38.568c-0.058,0.111-0.113,0.17-0.226,0.17c-1.017,0-2.032,0-3.047,0 c-0.057,0-0.113-0.059-0.057-0.17c0.113-0.226,0.17-0.45,0.283-0.619c0.056-0.116,0.112-0.174,0.224-0.174 c0.959,0,1.976,0,2.934,0c0.058,0,0.113,0.058,0.113,0.174C26.419,38.118,26.305,38.344,26.25,38.568z"/> <path fill="#32475A" d="M30.76,38.568c0,0.111-0.11,0.17-0.168,0.17c-1.015,0-2.032,0-3.046,0c-0.056,0-0.113-0.059-0.113-0.17 c0.057-0.226,0.113-0.45,0.226-0.619c0-0.116,0.113-0.174,0.226-0.174c0.959,0,1.974,0,2.934,0c0.055,0,0.113,0.058,0.113,0.174 C30.874,38.118,30.819,38.344,30.76,38.568z"/> <path fill="#32475A" d="M35.331,38.568c0,0.111-0.113,0.17-0.168,0.17c-1.018,0-2.032,0-3.047,0c-0.057,0-0.113-0.059-0.113-0.17 c0.056-0.226,0.113-0.45,0.113-0.619c0-0.116,0.113-0.174,0.168-0.174c0.959,0,1.974,0,2.934,0c0.055,0,0.113,0.058,0.113,0.174 C35.387,38.118,35.331,38.344,35.331,38.568z"/> <path fill="#32475A" d="M39.505,38.568c0,0.111-0.055,0.17-0.168,0.17c-1.017,0-2.032,0-3.046,0c-0.058,0-0.171-0.059-0.113-0.17 c0-0.226,0.055-0.45,0.055-0.619c0-0.116,0.058-0.174,0.17-0.174c0.959,0,1.974,0,2.934,0c0.056,0,0.168,0.058,0.168,0.174 C39.563,38.118,39.563,38.344,39.505,38.568z"/> <path fill="#32475A" d="M44.074,38.568c0,0.111-0.055,0.17-0.111,0.17c-1.015,0-2.029,0-3.049,0c-0.053,0-0.168-0.059-0.168-0.17 c0-0.226,0-0.45,0-0.619c0-0.116,0.059-0.174,0.168-0.174c0.962,0,1.977,0,2.934,0c0.059,0,0.174,0.058,0.174,0.174 C44.021,38.118,44.021,38.344,44.074,38.568z"/> <path fill="#32475A" d="M48.589,38.568c0,0.111-0.058,0.17-0.114,0.17c-1.016,0-2.029,0-3.045,0c-0.058,0-0.168-0.059-0.168-0.17 c0-0.226-0.058-0.45-0.058-0.619c0-0.116,0.058-0.174,0.11-0.174c0.961,0,1.977,0,2.934,0c0.059,0,0.173,0.058,0.173,0.174 C48.475,38.118,48.531,38.344,48.589,38.568z"/> <path fill="#32475A" d="M52.82,38.568c0,0.111,0,0.17-0.113,0.17c-1.016,0-2.03,0-3.045,0c-0.059,0-0.174-0.059-0.174-0.17 c-0.053-0.226-0.109-0.45-0.168-0.619c0-0.116,0.059-0.174,0.115-0.174c0.957,0,1.973,0,2.935,0c0.056,0,0.168,0.058,0.168,0.174 C52.648,38.118,52.764,38.344,52.82,38.568z"/> <path fill="#32475A" d="M57.332,38.568c0.057,0.111,0,0.17-0.059,0.17c-1.016,0-2.029,0-3.045,0c-0.058,0-0.168-0.059-0.226-0.17 c-0.058-0.226-0.169-0.45-0.226-0.619c-0.059-0.116,0-0.174,0.113-0.174c0.957,0,1.973,0,2.935,0c0.054,0,0.168,0.058,0.222,0.174 C57.163,38.118,57.221,38.344,57.332,38.568z"/> <path fill="#32475A" d="M61.848,38.568c0.053,0.111,0,0.17-0.059,0.17c-1.016,0-2.029,0-3.048,0c-0.054,0-0.169-0.059-0.228-0.17 c-0.111-0.226-0.168-0.45-0.279-0.619c-0.058-0.116,0-0.174,0.059-0.174c0.957,0,1.973,0,2.934,0c0.055,0,0.168,0.058,0.224,0.174 C61.62,38.118,61.732,38.344,61.848,38.568z"/> <path fill="#32475A" d="M66.074,38.568c0.058,0.111,0.058,0.17-0.055,0.17c-1.015,0-2.033,0-3.047,0 c-0.057,0-0.17-0.059-0.228-0.17c-0.11-0.226-0.226-0.45-0.337-0.619c-0.059-0.116,0-0.174,0.058-0.174c0.958,0,1.974,0,2.935,0 c0.054,0,0.168,0.058,0.227,0.174C65.795,38.118,65.963,38.344,66.074,38.568z"/> <path fill="#32475A" d="M70.59,38.568c0.057,0.111,0.057,0.17-0.059,0.17c-1.016,0-2.029,0-3.045,0 c-0.057,0-0.225-0.059-0.282-0.17c-0.168-0.226-0.283-0.45-0.452-0.619c-0.059-0.116-0.059-0.174,0.059-0.174 c0.957,0,1.977,0,2.934,0c0.058,0,0.227,0.058,0.283,0.174C70.307,38.118,70.475,38.344,70.59,38.568z"/> <path fill="#32475A" d="M12.089,39.865c-0.056,0.115-0.169,0.173-0.282,0.173c-1.015,0-2.087,0-3.102,0 c-0.113,0-0.113-0.058-0.057-0.173c0.17-0.223,0.339-0.448,0.507-0.621c0.058-0.11,0.17-0.168,0.284-0.168c1.015,0,2.03,0,3.046,0 c0.056,0,0.113,0.058,0.056,0.168C12.427,39.417,12.259,39.643,12.089,39.865z"/> <path fill="#32475A" d="M16.772,39.865c-0.057,0.115-0.17,0.173-0.226,0.173c-1.015,0-2.087,0-3.102,0 c-0.113,0-0.113-0.058-0.058-0.173c0.113-0.223,0.281-0.448,0.395-0.621c0.057-0.11,0.17-0.168,0.283-0.168 c1.015,0,2.029,0,3.047,0c0.055,0,0.112,0.058,0.055,0.168C17.053,39.417,16.885,39.643,16.772,39.865z"/> <path fill="#32475A" d="M21.172,39.865c-0.057,0.115-0.168,0.173-0.226,0.173c-1.015,0-2.087,0-3.102,0 c-0.113,0-0.113-0.058-0.058-0.173c0.113-0.223,0.226-0.448,0.339-0.621c0.055-0.11,0.168-0.168,0.226-0.168 c1.015,0,2.03,0,3.046,0c0.055,0,0.113,0.058,0.055,0.168C21.341,39.417,21.227,39.643,21.172,39.865z"/> <path fill="#32475A" d="M25.798,39.865c-0.057,0.115-0.113,0.173-0.226,0.173c-1.015,0-2.087,0-3.102,0 c-0.113,0-0.113-0.058-0.113-0.173c0.113-0.223,0.168-0.448,0.281-0.621c0.056-0.11,0.113-0.168,0.226-0.168 c1.015,0,2.03,0,3.046,0c0.055,0,0.113,0.058,0.113,0.168C25.966,39.417,25.911,39.643,25.798,39.865z"/> <path fill="#32475A" d="M30.479,39.865c0,0.115-0.113,0.173-0.168,0.173c-1.017,0-2.087,0-3.104,0 c-0.113,0-0.113-0.058-0.113-0.173c0.058-0.223,0.113-0.448,0.226-0.621c0-0.11,0.113-0.168,0.226-0.168c1.015,0,2.031,0,3.046,0 c0.058,0,0.113,0.058,0.113,0.168C30.593,39.417,30.537,39.643,30.479,39.865z"/> <path fill="#32475A" d="M35.163,39.865c0,0.115-0.113,0.173-0.171,0.173c-1.015,0-2.087,0-3.102,0 c-0.112,0-0.17-0.058-0.112-0.173c0.055-0.223,0.112-0.448,0.112-0.621c0-0.11,0.113-0.168,0.169-0.168c1.015,0,2.031,0,3.046,0 c0.058,0,0.168,0.058,0.113,0.168C35.219,39.417,35.163,39.643,35.163,39.865z"/> <path fill="#32475A" d="M39.505,39.865c0,0.115-0.055,0.173-0.168,0.173c-1.017,0-2.087,0-3.104,0 c-0.113,0-0.168-0.058-0.113-0.173c0-0.223,0.058-0.448,0.058-0.621c0-0.11,0.055-0.168,0.168-0.168c1.017,0,2.031,0,3.046,0 c0.057,0,0.17,0.058,0.17,0.168C39.505,39.417,39.505,39.643,39.505,39.865z"/> <path fill="#32475A" d="M44.189,39.865c0,0.115-0.059,0.173-0.168,0.173c-1.02,0-2.088,0-3.106,0c-0.11,0-0.168-0.058-0.168-0.173 c0-0.223,0-0.448,0-0.621c0-0.11,0.058-0.168,0.168-0.168c1.021,0,2.034,0,3.049,0c0.058,0,0.168,0.058,0.168,0.168 C44.131,39.417,44.131,39.643,44.189,39.865z"/> <path fill="#32475A" d="M48.868,39.865c0,0.115-0.054,0.173-0.11,0.173c-1.015,0-2.088,0-3.104,0 c-0.114,0-0.168-0.058-0.168-0.173c0-0.223-0.057-0.448-0.057-0.621c0-0.11,0.057-0.168,0.109-0.168c1.016,0,2.034,0,3.049,0 c0.059,0,0.169,0.058,0.169,0.168C48.758,39.417,48.814,39.643,48.868,39.865z"/> <path fill="#32475A" d="M53.215,39.865c0,0.115,0,0.173-0.113,0.173c-1.017,0-2.088,0-3.104,0c-0.111,0-0.168-0.058-0.168-0.173 c-0.059-0.223-0.115-0.448-0.169-0.621c0-0.11,0.054-0.168,0.11-0.168c1.016,0,2.029,0,3.049,0c0.054,0,0.168,0.058,0.226,0.168 C53.046,39.417,53.157,39.643,53.215,39.865z"/> <path fill="#32475A" d="M57.895,39.865c0.059,0.115,0,0.173-0.11,0.173c-1.015,0-2.087,0-3.103,0 c-0.115,0-0.168-0.058-0.227-0.173c-0.057-0.223-0.168-0.448-0.227-0.621c-0.058-0.11,0-0.168,0.111-0.168c1.02,0,2.033,0,3.049,0 c0.057,0,0.168,0.058,0.227,0.168C57.672,39.417,57.783,39.643,57.895,39.865z"/> <path fill="#32475A" d="M62.521,39.865c0.058,0.115,0,0.173-0.055,0.173c-1.018,0-2.087,0-3.105,0 c-0.11,0-0.168-0.058-0.221-0.173c-0.115-0.223-0.174-0.448-0.283-0.621c-0.06-0.11,0-0.168,0.057-0.168c1.016,0,2.029,0,3.045,0 c0.057,0,0.168,0.058,0.227,0.168C62.295,39.417,62.409,39.643,62.521,39.865z"/> <path fill="#32475A" d="M66.921,39.865c0.058,0.115,0.058,0.173-0.054,0.173c-1.016,0-2.088,0-3.105,0 c-0.111,0-0.169-0.058-0.223-0.173c-0.114-0.223-0.227-0.448-0.341-0.621c-0.058-0.11,0-0.168,0.058-0.168 c1.016,0,2.029,0,3.044,0c0.058,0,0.228,0.058,0.283,0.168C66.643,39.417,66.752,39.643,66.921,39.865z"/> <path fill="#32475A" d="M71.547,39.865c0.059,0.115,0.059,0.173-0.054,0.173c-1.019,0-2.087,0-3.104,0 c-0.111,0-0.224-0.058-0.281-0.173c-0.168-0.223-0.282-0.448-0.45-0.621c-0.058-0.11-0.058-0.168,0.057-0.168 c1.017,0,2.03,0,3.045,0c0.058,0,0.228,0.058,0.283,0.168C71.268,39.417,71.436,39.643,71.547,39.865z"/> <path fill="#32475A" d="M20.72,41.448c-0.055,0.11-0.168,0.169-0.226,0.169c-4.343,0-8.63,0-12.975,0 c-0.113,0-0.113-0.059-0.056-0.169c0.168-0.226,0.337-0.452,0.508-0.62c0.055-0.116,0.168-0.17,0.281-0.17 c4.231,0,8.461,0,12.693,0c0.113,0,0.113,0.054,0.113,0.17C20.946,40.996,20.833,41.223,20.72,41.448z"/> <path fill="#32475A" d="M25.233,41.448c-0.056,0.11-0.113,0.169-0.226,0.169c-1.07,0-2.143,0-3.215,0 c-0.113,0-0.113-0.059-0.113-0.169c0.113-0.226,0.168-0.452,0.281-0.62c0.057-0.116,0.113-0.17,0.226-0.17 c1.072,0,2.087,0,3.159,0c0.113,0,0.113,0.054,0.113,0.17C25.403,40.996,25.346,41.223,25.233,41.448z"/> <path fill="#32475A" d="M54.004,41.448c0,0.11,0,0.169-0.111,0.169c-9.082,0-18.167,0-27.249,0c-0.113,0-0.113-0.059-0.113-0.169 c0.056-0.226,0.113-0.452,0.226-0.62c0-0.116,0.113-0.17,0.226-0.17c8.855,0,17.769,0,26.626,0c0.111,0,0.168,0.054,0.226,0.17 C53.893,40.996,53.947,41.223,54.004,41.448z"/> <path fill="#778184" d="M53.27,44.496c0.172,0.51-0.224,0.962-0.789,0.962c-8.35,0-16.696,0-25.046,0 c-0.563,0-0.902-0.452-0.789-0.962c0.113-0.448,0.226-0.848,0.395-1.296c0.168-0.511,0.733-0.962,1.241-0.962 c7.785,0,15.569,0,23.354,0c0.567,0,1.073,0.451,1.241,0.962C52.99,43.648,53.157,44.102,53.27,44.496z"/> <path fill="#32475A" d="M58.516,41.448c0.058,0.11,0,0.169-0.111,0.169c-1.071,0-2.146,0-3.217,0c-0.11,0-0.168-0.059-0.227-0.169 c-0.053-0.226-0.168-0.452-0.227-0.62c-0.053-0.116,0-0.17,0.115-0.17c1.072,0,2.088,0,3.159,0c0.11,0,0.168,0.054,0.226,0.17 C58.348,40.996,58.462,41.223,58.516,41.448z"/> <path fill="#32475A" d="M65.627,41.448c0.053,0.11,0,0.169-0.059,0.169c-1.86,0-3.668,0-5.529,0c-0.111,0-0.168-0.059-0.227-0.169 c-0.11-0.226-0.168-0.452-0.279-0.62c-0.057-0.116,0-0.17,0.111-0.17c1.805,0,3.61,0,5.414,0c0.114,0,0.227,0.054,0.227,0.17 C65.4,40.996,65.512,41.223,65.627,41.448z"/> <path fill="#32475A" d="M73.07,41.448c0.06,0.11,0.06,0.169-0.057,0.169c-1.861,0-3.664,0-5.525,0 c-0.115,0-0.227-0.059-0.283-0.169c-0.111-0.226-0.283-0.452-0.395-0.62c-0.059-0.116,0-0.17,0.058-0.17c1.804,0,3.606,0,5.415,0 c0.111,0,0.226,0.054,0.281,0.17C72.787,40.996,72.902,41.223,73.07,41.448z"/> </g> </g>  </g><g id="ProcessOnG1008" transform="matrix(1.0,0.0,0.0,1.0,-20.0,54.875)"><text id="ProcessOnText1009" fill="#000000" font-size="13" x="58.5" y="13.325" font-family="微软雅黑" font-weight="normal" font-style="normal" text-decoration="none" family="微软雅黑" text-anchor="middle" size="13">电脑A</text></g></g><g id="ProcessOnG1010" transform="matrix(1.0,0.0,0.0,1.0,642.5028533935547,268.51705169677734)" opacity="1.0"><g id="ProcessOnG1012" transform="matrix(1.0,0.0,0.0,1.0,0.0,0.0)"> <g> <path fill="#9BA5A8" d="M40.746,46.869h-0.62L0.073,46.531l0.395,0.507l0.791,0.847C1.314,48,1.54,48,1.708,48h37.177H39.9h0.168 h0.793h36.441c0.168,0,0.396-0.115,0.508-0.227l0.791-0.679l0.395-0.395L40.746,46.869z"/> <path fill="#778184" d="M43.174,46.869c0,0-0.283,0.563-0.619,0.563H36.63c-0.339,0-0.621-0.563-0.621-0.563H43.174z"/> <path fill="#32475A" d="M68.502,36.141H11.073c-0.959,0-1.467-0.508-1.467-1.412V0.958C9.607,0.395,10.001,0,10.566,0h58.5 c0.51,0,0.902,0.395,0.902,0.845v33.826C69.969,35.633,69.46,36.141,68.502,36.141z"/> <path fill="#BBC4CB" d="M78.432,46.869c-25.558,0-52.294,0-77.852,0c-0.62,0-0.789-0.621-0.281-1.184 c2.481-2.938,5.472-5.763,7.954-8.699c0.452-0.563,1.241-0.848,1.748-0.848c19.689,0,39.377,0,59.063,0 c0.511,0,1.24,0.228,1.75,0.789c2.481,2.938,5.473,5.932,7.955,8.867C79.164,46.361,79.053,46.869,78.432,46.869z"/> <path fill="#FFFFFF" d="M67.6,34.445H11.187c0,0,0-1.186,0-1.242V3.387c0,0,0.733,0,0.791,0H67.6v29.816 C67.6,33.261,67.6,34.445,67.6,34.445z"/> <circle fill="#476472" cx="39.505" cy="1.58" r="0.564"/> <g> <path fill="#32475A" d="M13.838,37.328c-0.057,0.054-0.17,0.109-0.226,0.109c-1.015,0-1.974,0-2.99,0 c-0.056,0-0.056-0.057,0-0.109c0.112-0.115,0.17-0.227,0.283-0.398c0.056-0.055,0.168-0.111,0.226-0.111c0.958,0,1.974,0,2.934,0 c0.055,0,0.055,0.058,0.055,0.111C14.007,37.044,13.894,37.155,13.838,37.328z"/> <path fill="#32475A" d="M18.181,37.328c-0.055,0.054-0.113,0.109-0.224,0.109c-1.017,0-1.976,0-2.991,0 c-0.055,0-0.113-0.057-0.055-0.109c0.055-0.115,0.168-0.227,0.224-0.398c0.057-0.055,0.17-0.111,0.226-0.111 c0.959,0,1.975,0,2.934,0c0.057,0,0.113,0.058,0.057,0.111C18.351,37.044,18.294,37.155,18.181,37.328z"/> <path fill="#32475A" d="M22.3,37.328c-0.056,0.054-0.113,0.109-0.168,0.109c-1.017,0-1.974,0-2.991,0 c-0.055,0-0.113-0.057-0.055-0.109c0.055-0.115,0.112-0.227,0.226-0.398c0.056-0.055,0.113-0.111,0.168-0.111 c0.959,0,1.974,0,2.933,0c0.058,0,0.113,0.058,0.058,0.111C22.412,37.044,22.357,37.155,22.3,37.328z"/> <path fill="#32475A" d="M26.7,37.328c0,0.054-0.113,0.109-0.169,0.109c-1.016,0-1.974,0-2.991,0c-0.055,0-0.113-0.057-0.055-0.109 c0.055-0.115,0.113-0.227,0.168-0.398c0.057-0.055,0.113-0.111,0.17-0.111c0.958,0,1.974,0,2.934,0 c0.055,0,0.113,0.058,0.055,0.111C26.757,37.044,26.757,37.155,26.7,37.328z"/> <path fill="#32475A" d="M31.1,37.328c0,0.054-0.113,0.109-0.168,0.109c-1.015,0-1.974,0-2.991,0c-0.055,0-0.112-0.057-0.055-0.109 c0.055-0.115,0.055-0.227,0.113-0.398c0-0.055,0.113-0.111,0.168-0.111c0.959,0,1.974,0,2.934,0c0.057,0,0.113,0.058,0.113,0.111 C31.157,37.044,31.1,37.155,31.1,37.328z"/> <path fill="#32475A" d="M35.445,37.328c0,0.054-0.058,0.109-0.171,0.109c-1.015,0-1.974,0-2.989,0 c-0.055,0-0.113-0.057-0.113-0.109c0-0.115,0.058-0.227,0.058-0.398c0-0.055,0.055-0.111,0.168-0.111c0.959,0,1.974,0,2.933,0 c0.056,0,0.113,0.058,0.113,0.111C35.5,37.044,35.5,37.155,35.445,37.328z"/> <path fill="#32475A" d="M39.563,37.328c0,0.054-0.058,0.109-0.113,0.109c-1.017,0-1.974,0-2.991,0 c-0.056,0-0.113-0.057-0.113-0.109c0-0.115,0-0.227,0.057-0.398c0-0.055,0.056-0.111,0.113-0.111c0.959,0,1.974,0,2.934,0 c0.055,0,0.113,0.058,0.113,0.111C39.563,37.044,39.563,37.155,39.563,37.328z"/> <path fill="#32475A" d="M43.963,37.328c0,0.054-0.059,0.109-0.115,0.109c-1.015,0-1.972,0-2.986,0 c-0.057,0-0.114-0.057-0.114-0.109c0-0.115,0-0.227,0-0.398c0-0.055,0.058-0.111,0.114-0.111c0.957,0,1.973,0,2.935,0 c0.054,0,0.11,0.058,0.11,0.111C43.906,37.044,43.906,37.155,43.963,37.328z"/> <path fill="#32475A" d="M48.307,37.328c0,0.054,0,0.109-0.111,0.109c-1.016,0-1.977,0-2.99,0c-0.059,0-0.115-0.057-0.169-0.109 c0-0.115-0.058-0.227-0.058-0.398c0-0.055,0.058-0.111,0.11-0.111c0.961,0,1.976,0,2.935,0c0.057,0,0.115,0.058,0.172,0.111 C48.248,37.044,48.307,37.155,48.307,37.328z"/> <path fill="#32475A" d="M52.425,37.328c0,0.054,0,0.109-0.056,0.109c-1.016,0-1.977,0-2.991,0c-0.058,0-0.11-0.057-0.169-0.109 c0-0.115-0.057-0.227-0.057-0.398c0-0.055,0-0.111,0.113-0.111c0.957,0,1.973,0,2.935,0c0.054,0,0.169,0.058,0.169,0.111 C52.369,37.044,52.369,37.155,52.425,37.328z"/> <path fill="#32475A" d="M56.826,37.328c0.054,0.054,0,0.109-0.059,0.109c-1.015,0-1.976,0-2.99,0 c-0.057,0-0.168-0.057-0.168-0.109c-0.059-0.115-0.059-0.227-0.114-0.398c0-0.055,0-0.111,0.057-0.111c0.962,0,1.978,0,2.935,0 c0.058,0,0.168,0.058,0.168,0.111C56.711,37.044,56.77,37.155,56.826,37.328z"/> <path fill="#32475A" d="M61.169,37.328c0.058,0.054,0,0.109-0.058,0.109c-1.016,0-1.973,0-2.991,0 c-0.054,0-0.168-0.057-0.168-0.109c-0.058-0.115-0.111-0.227-0.169-0.398c-0.057-0.055,0-0.111,0.058-0.111 c0.957,0,1.972,0,2.935,0c0.054,0,0.168,0.058,0.168,0.111C61.055,37.044,61.111,37.155,61.169,37.328z"/> <path fill="#32475A" d="M65.285,37.328c0.058,0.054,0.058,0.109-0.057,0.109c-1.016,0-1.974,0-2.987,0 c-0.058,0-0.169-0.057-0.228-0.109c-0.057-0.115-0.113-0.227-0.226-0.398c-0.058-0.055,0-0.111,0.058-0.111 c0.957,0,1.973,0,2.934,0c0.055,0,0.169,0.058,0.227,0.111C65.117,37.044,65.229,37.155,65.285,37.328z"/> <path fill="#32475A" d="M69.686,37.328c0.059,0.054,0.059,0.109,0,0.109c-1.015,0-1.973,0-2.99,0 c-0.053,0-0.168-0.057-0.223-0.109c-0.058-0.115-0.173-0.227-0.226-0.398c-0.058-0.055-0.058-0.111,0.053-0.111 c0.962,0,1.978,0,2.935,0c0.058,0,0.173,0.058,0.227,0.111C69.518,37.044,69.575,37.155,69.686,37.328z"/> <path fill="#32475A" d="M12.992,38.568c-0.057,0.111-0.17,0.17-0.282,0.17c-1.017,0-2.031,0-3.046,0 c-0.058,0-0.113-0.059-0.058-0.17c0.171-0.226,0.339-0.45,0.507-0.619c0.058-0.116,0.17-0.174,0.284-0.174 c0.958,0,1.974,0,2.934,0c0.055,0,0.113,0.058,0.055,0.174C13.273,38.118,13.105,38.344,12.992,38.568z"/> <path fill="#32475A" d="M17.505,38.568c-0.058,0.111-0.17,0.17-0.226,0.17c-1.015,0-2.032,0-3.046,0 c-0.055,0-0.113-0.059-0.055-0.17c0.113-0.226,0.281-0.45,0.395-0.619c0.055-0.116,0.168-0.174,0.226-0.174 c0.959,0,1.974,0,2.934,0c0.055,0,0.113,0.058,0.055,0.174C17.731,38.118,17.618,38.344,17.505,38.568z"/> <path fill="#32475A" d="M21.737,38.568c-0.057,0.111-0.113,0.17-0.226,0.17c-1.017,0-2.032,0-3.047,0 c-0.057,0-0.113-0.059-0.057-0.17c0.113-0.226,0.226-0.45,0.339-0.619c0.056-0.116,0.168-0.174,0.226-0.174 c0.959,0,1.974,0,2.934,0c0.055,0,0.112,0.058,0.055,0.174C21.906,38.118,21.847,38.344,21.737,38.568z"/> <path fill="#32475A" d="M26.25,38.568c-0.058,0.111-0.113,0.17-0.226,0.17c-1.017,0-2.032,0-3.047,0 c-0.057,0-0.113-0.059-0.057-0.17c0.113-0.226,0.17-0.45,0.283-0.619c0.056-0.116,0.112-0.174,0.224-0.174 c0.959,0,1.976,0,2.934,0c0.058,0,0.113,0.058,0.113,0.174C26.419,38.118,26.305,38.344,26.25,38.568z"/> <path fill="#32475A" d="M30.76,38.568c0,0.111-0.11,0.17-0.168,0.17c-1.015,0-2.032,0-3.046,0c-0.056,0-0.113-0.059-0.113-0.17 c0.057-0.226,0.113-0.45,0.226-0.619c0-0.116,0.113-0.174,0.226-0.174c0.959,0,1.974,0,2.934,0c0.055,0,0.113,0.058,0.113,0.174 C30.874,38.118,30.819,38.344,30.76,38.568z"/> <path fill="#32475A" d="M35.331,38.568c0,0.111-0.113,0.17-0.168,0.17c-1.018,0-2.032,0-3.047,0c-0.057,0-0.113-0.059-0.113-0.17 c0.056-0.226,0.113-0.45,0.113-0.619c0-0.116,0.113-0.174,0.168-0.174c0.959,0,1.974,0,2.934,0c0.055,0,0.113,0.058,0.113,0.174 C35.387,38.118,35.331,38.344,35.331,38.568z"/> <path fill="#32475A" d="M39.505,38.568c0,0.111-0.055,0.17-0.168,0.17c-1.017,0-2.032,0-3.046,0c-0.058,0-0.171-0.059-0.113-0.17 c0-0.226,0.055-0.45,0.055-0.619c0-0.116,0.058-0.174,0.17-0.174c0.959,0,1.974,0,2.934,0c0.056,0,0.168,0.058,0.168,0.174 C39.563,38.118,39.563,38.344,39.505,38.568z"/> <path fill="#32475A" d="M44.074,38.568c0,0.111-0.055,0.17-0.111,0.17c-1.015,0-2.029,0-3.049,0c-0.053,0-0.168-0.059-0.168-0.17 c0-0.226,0-0.45,0-0.619c0-0.116,0.059-0.174,0.168-0.174c0.962,0,1.977,0,2.934,0c0.059,0,0.174,0.058,0.174,0.174 C44.021,38.118,44.021,38.344,44.074,38.568z"/> <path fill="#32475A" d="M48.589,38.568c0,0.111-0.058,0.17-0.114,0.17c-1.016,0-2.029,0-3.045,0c-0.058,0-0.168-0.059-0.168-0.17 c0-0.226-0.058-0.45-0.058-0.619c0-0.116,0.058-0.174,0.11-0.174c0.961,0,1.977,0,2.934,0c0.059,0,0.173,0.058,0.173,0.174 C48.475,38.118,48.531,38.344,48.589,38.568z"/> <path fill="#32475A" d="M52.82,38.568c0,0.111,0,0.17-0.113,0.17c-1.016,0-2.03,0-3.045,0c-0.059,0-0.174-0.059-0.174-0.17 c-0.053-0.226-0.109-0.45-0.168-0.619c0-0.116,0.059-0.174,0.115-0.174c0.957,0,1.973,0,2.935,0c0.056,0,0.168,0.058,0.168,0.174 C52.648,38.118,52.764,38.344,52.82,38.568z"/> <path fill="#32475A" d="M57.332,38.568c0.057,0.111,0,0.17-0.059,0.17c-1.016,0-2.029,0-3.045,0c-0.058,0-0.168-0.059-0.226-0.17 c-0.058-0.226-0.169-0.45-0.226-0.619c-0.059-0.116,0-0.174,0.113-0.174c0.957,0,1.973,0,2.935,0c0.054,0,0.168,0.058,0.222,0.174 C57.163,38.118,57.221,38.344,57.332,38.568z"/> <path fill="#32475A" d="M61.848,38.568c0.053,0.111,0,0.17-0.059,0.17c-1.016,0-2.029,0-3.048,0c-0.054,0-0.169-0.059-0.228-0.17 c-0.111-0.226-0.168-0.45-0.279-0.619c-0.058-0.116,0-0.174,0.059-0.174c0.957,0,1.973,0,2.934,0c0.055,0,0.168,0.058,0.224,0.174 C61.62,38.118,61.732,38.344,61.848,38.568z"/> <path fill="#32475A" d="M66.074,38.568c0.058,0.111,0.058,0.17-0.055,0.17c-1.015,0-2.033,0-3.047,0 c-0.057,0-0.17-0.059-0.228-0.17c-0.11-0.226-0.226-0.45-0.337-0.619c-0.059-0.116,0-0.174,0.058-0.174c0.958,0,1.974,0,2.935,0 c0.054,0,0.168,0.058,0.227,0.174C65.795,38.118,65.963,38.344,66.074,38.568z"/> <path fill="#32475A" d="M70.59,38.568c0.057,0.111,0.057,0.17-0.059,0.17c-1.016,0-2.029,0-3.045,0 c-0.057,0-0.225-0.059-0.282-0.17c-0.168-0.226-0.283-0.45-0.452-0.619c-0.059-0.116-0.059-0.174,0.059-0.174 c0.957,0,1.977,0,2.934,0c0.058,0,0.227,0.058,0.283,0.174C70.307,38.118,70.475,38.344,70.59,38.568z"/> <path fill="#32475A" d="M12.089,39.865c-0.056,0.115-0.169,0.173-0.282,0.173c-1.015,0-2.087,0-3.102,0 c-0.113,0-0.113-0.058-0.057-0.173c0.17-0.223,0.339-0.448,0.507-0.621c0.058-0.11,0.17-0.168,0.284-0.168c1.015,0,2.03,0,3.046,0 c0.056,0,0.113,0.058,0.056,0.168C12.427,39.417,12.259,39.643,12.089,39.865z"/> <path fill="#32475A" d="M16.772,39.865c-0.057,0.115-0.17,0.173-0.226,0.173c-1.015,0-2.087,0-3.102,0 c-0.113,0-0.113-0.058-0.058-0.173c0.113-0.223,0.281-0.448,0.395-0.621c0.057-0.11,0.17-0.168,0.283-0.168 c1.015,0,2.029,0,3.047,0c0.055,0,0.112,0.058,0.055,0.168C17.053,39.417,16.885,39.643,16.772,39.865z"/> <path fill="#32475A" d="M21.172,39.865c-0.057,0.115-0.168,0.173-0.226,0.173c-1.015,0-2.087,0-3.102,0 c-0.113,0-0.113-0.058-0.058-0.173c0.113-0.223,0.226-0.448,0.339-0.621c0.055-0.11,0.168-0.168,0.226-0.168 c1.015,0,2.03,0,3.046,0c0.055,0,0.113,0.058,0.055,0.168C21.341,39.417,21.227,39.643,21.172,39.865z"/> <path fill="#32475A" d="M25.798,39.865c-0.057,0.115-0.113,0.173-0.226,0.173c-1.015,0-2.087,0-3.102,0 c-0.113,0-0.113-0.058-0.113-0.173c0.113-0.223,0.168-0.448,0.281-0.621c0.056-0.11,0.113-0.168,0.226-0.168 c1.015,0,2.03,0,3.046,0c0.055,0,0.113,0.058,0.113,0.168C25.966,39.417,25.911,39.643,25.798,39.865z"/> <path fill="#32475A" d="M30.479,39.865c0,0.115-0.113,0.173-0.168,0.173c-1.017,0-2.087,0-3.104,0 c-0.113,0-0.113-0.058-0.113-0.173c0.058-0.223,0.113-0.448,0.226-0.621c0-0.11,0.113-0.168,0.226-0.168c1.015,0,2.031,0,3.046,0 c0.058,0,0.113,0.058,0.113,0.168C30.593,39.417,30.537,39.643,30.479,39.865z"/> <path fill="#32475A" d="M35.163,39.865c0,0.115-0.113,0.173-0.171,0.173c-1.015,0-2.087,0-3.102,0 c-0.112,0-0.17-0.058-0.112-0.173c0.055-0.223,0.112-0.448,0.112-0.621c0-0.11,0.113-0.168,0.169-0.168c1.015,0,2.031,0,3.046,0 c0.058,0,0.168,0.058,0.113,0.168C35.219,39.417,35.163,39.643,35.163,39.865z"/> <path fill="#32475A" d="M39.505,39.865c0,0.115-0.055,0.173-0.168,0.173c-1.017,0-2.087,0-3.104,0 c-0.113,0-0.168-0.058-0.113-0.173c0-0.223,0.058-0.448,0.058-0.621c0-0.11,0.055-0.168,0.168-0.168c1.017,0,2.031,0,3.046,0 c0.057,0,0.17,0.058,0.17,0.168C39.505,39.417,39.505,39.643,39.505,39.865z"/> <path fill="#32475A" d="M44.189,39.865c0,0.115-0.059,0.173-0.168,0.173c-1.02,0-2.088,0-3.106,0c-0.11,0-0.168-0.058-0.168-0.173 c0-0.223,0-0.448,0-0.621c0-0.11,0.058-0.168,0.168-0.168c1.021,0,2.034,0,3.049,0c0.058,0,0.168,0.058,0.168,0.168 C44.131,39.417,44.131,39.643,44.189,39.865z"/> <path fill="#32475A" d="M48.868,39.865c0,0.115-0.054,0.173-0.11,0.173c-1.015,0-2.088,0-3.104,0 c-0.114,0-0.168-0.058-0.168-0.173c0-0.223-0.057-0.448-0.057-0.621c0-0.11,0.057-0.168,0.109-0.168c1.016,0,2.034,0,3.049,0 c0.059,0,0.169,0.058,0.169,0.168C48.758,39.417,48.814,39.643,48.868,39.865z"/> <path fill="#32475A" d="M53.215,39.865c0,0.115,0,0.173-0.113,0.173c-1.017,0-2.088,0-3.104,0c-0.111,0-0.168-0.058-0.168-0.173 c-0.059-0.223-0.115-0.448-0.169-0.621c0-0.11,0.054-0.168,0.11-0.168c1.016,0,2.029,0,3.049,0c0.054,0,0.168,0.058,0.226,0.168 C53.046,39.417,53.157,39.643,53.215,39.865z"/> <path fill="#32475A" d="M57.895,39.865c0.059,0.115,0,0.173-0.11,0.173c-1.015,0-2.087,0-3.103,0 c-0.115,0-0.168-0.058-0.227-0.173c-0.057-0.223-0.168-0.448-0.227-0.621c-0.058-0.11,0-0.168,0.111-0.168c1.02,0,2.033,0,3.049,0 c0.057,0,0.168,0.058,0.227,0.168C57.672,39.417,57.783,39.643,57.895,39.865z"/> <path fill="#32475A" d="M62.521,39.865c0.058,0.115,0,0.173-0.055,0.173c-1.018,0-2.087,0-3.105,0 c-0.11,0-0.168-0.058-0.221-0.173c-0.115-0.223-0.174-0.448-0.283-0.621c-0.06-0.11,0-0.168,0.057-0.168c1.016,0,2.029,0,3.045,0 c0.057,0,0.168,0.058,0.227,0.168C62.295,39.417,62.409,39.643,62.521,39.865z"/> <path fill="#32475A" d="M66.921,39.865c0.058,0.115,0.058,0.173-0.054,0.173c-1.016,0-2.088,0-3.105,0 c-0.111,0-0.169-0.058-0.223-0.173c-0.114-0.223-0.227-0.448-0.341-0.621c-0.058-0.11,0-0.168,0.058-0.168 c1.016,0,2.029,0,3.044,0c0.058,0,0.228,0.058,0.283,0.168C66.643,39.417,66.752,39.643,66.921,39.865z"/> <path fill="#32475A" d="M71.547,39.865c0.059,0.115,0.059,0.173-0.054,0.173c-1.019,0-2.087,0-3.104,0 c-0.111,0-0.224-0.058-0.281-0.173c-0.168-0.223-0.282-0.448-0.45-0.621c-0.058-0.11-0.058-0.168,0.057-0.168 c1.017,0,2.03,0,3.045,0c0.058,0,0.228,0.058,0.283,0.168C71.268,39.417,71.436,39.643,71.547,39.865z"/> <path fill="#32475A" d="M20.72,41.448c-0.055,0.11-0.168,0.169-0.226,0.169c-4.343,0-8.63,0-12.975,0 c-0.113,0-0.113-0.059-0.056-0.169c0.168-0.226,0.337-0.452,0.508-0.62c0.055-0.116,0.168-0.17,0.281-0.17 c4.231,0,8.461,0,12.693,0c0.113,0,0.113,0.054,0.113,0.17C20.946,40.996,20.833,41.223,20.72,41.448z"/> <path fill="#32475A" d="M25.233,41.448c-0.056,0.11-0.113,0.169-0.226,0.169c-1.07,0-2.143,0-3.215,0 c-0.113,0-0.113-0.059-0.113-0.169c0.113-0.226,0.168-0.452,0.281-0.62c0.057-0.116,0.113-0.17,0.226-0.17 c1.072,0,2.087,0,3.159,0c0.113,0,0.113,0.054,0.113,0.17C25.403,40.996,25.346,41.223,25.233,41.448z"/> <path fill="#32475A" d="M54.004,41.448c0,0.11,0,0.169-0.111,0.169c-9.082,0-18.167,0-27.249,0c-0.113,0-0.113-0.059-0.113-0.169 c0.056-0.226,0.113-0.452,0.226-0.62c0-0.116,0.113-0.17,0.226-0.17c8.855,0,17.769,0,26.626,0c0.111,0,0.168,0.054,0.226,0.17 C53.893,40.996,53.947,41.223,54.004,41.448z"/> <path fill="#778184" d="M53.27,44.496c0.172,0.51-0.224,0.962-0.789,0.962c-8.35,0-16.696,0-25.046,0 c-0.563,0-0.902-0.452-0.789-0.962c0.113-0.448,0.226-0.848,0.395-1.296c0.168-0.511,0.733-0.962,1.241-0.962 c7.785,0,15.569,0,23.354,0c0.567,0,1.073,0.451,1.241,0.962C52.99,43.648,53.157,44.102,53.27,44.496z"/> <path fill="#32475A" d="M58.516,41.448c0.058,0.11,0,0.169-0.111,0.169c-1.071,0-2.146,0-3.217,0c-0.11,0-0.168-0.059-0.227-0.169 c-0.053-0.226-0.168-0.452-0.227-0.62c-0.053-0.116,0-0.17,0.115-0.17c1.072,0,2.088,0,3.159,0c0.11,0,0.168,0.054,0.226,0.17 C58.348,40.996,58.462,41.223,58.516,41.448z"/> <path fill="#32475A" d="M65.627,41.448c0.053,0.11,0,0.169-0.059,0.169c-1.86,0-3.668,0-5.529,0c-0.111,0-0.168-0.059-0.227-0.169 c-0.11-0.226-0.168-0.452-0.279-0.62c-0.057-0.116,0-0.17,0.111-0.17c1.805,0,3.61,0,5.414,0c0.114,0,0.227,0.054,0.227,0.17 C65.4,40.996,65.512,41.223,65.627,41.448z"/> <path fill="#32475A" d="M73.07,41.448c0.06,0.11,0.06,0.169-0.057,0.169c-1.861,0-3.664,0-5.525,0 c-0.115,0-0.227-0.059-0.283-0.169c-0.111-0.226-0.283-0.452-0.395-0.62c-0.059-0.116,0-0.17,0.058-0.17c1.804,0,3.606,0,5.415,0 c0.111,0,0.226,0.054,0.281,0.17C72.787,40.996,72.902,41.223,73.07,41.448z"/> </g> </g>  </g><g id="ProcessOnG1013" transform="matrix(1.0,0.0,0.0,1.0,-20.0,54.875)"><text id="ProcessOnText1014" fill="#000000" font-size="13" x="58.5" y="13.325" font-family="微软雅黑" font-weight="normal" font-style="normal" text-decoration="none" family="微软雅黑" text-anchor="middle" size="13">电脑B</text></g></g><g id="ProcessOnG1015" transform="matrix(1.0,0.0,0.0,1.0,642.5028533935547,362.01705169677734)" opacity="1.0"><g id="ProcessOnG1017" transform="matrix(1.0,0.0,0.0,1.0,0.0,0.0)"> <g> <path fill="#9BA5A8" d="M40.746,46.869h-0.62L0.073,46.531l0.395,0.507l0.791,0.847C1.314,48,1.54,48,1.708,48h37.177H39.9h0.168 h0.793h36.441c0.168,0,0.396-0.115,0.508-0.227l0.791-0.679l0.395-0.395L40.746,46.869z"/> <path fill="#778184" d="M43.174,46.869c0,0-0.283,0.563-0.619,0.563H36.63c-0.339,0-0.621-0.563-0.621-0.563H43.174z"/> <path fill="#32475A" d="M68.502,36.141H11.073c-0.959,0-1.467-0.508-1.467-1.412V0.958C9.607,0.395,10.001,0,10.566,0h58.5 c0.51,0,0.902,0.395,0.902,0.845v33.826C69.969,35.633,69.46,36.141,68.502,36.141z"/> <path fill="#BBC4CB" d="M78.432,46.869c-25.558,0-52.294,0-77.852,0c-0.62,0-0.789-0.621-0.281-1.184 c2.481-2.938,5.472-5.763,7.954-8.699c0.452-0.563,1.241-0.848,1.748-0.848c19.689,0,39.377,0,59.063,0 c0.511,0,1.24,0.228,1.75,0.789c2.481,2.938,5.473,5.932,7.955,8.867C79.164,46.361,79.053,46.869,78.432,46.869z"/> <path fill="#FFFFFF" d="M67.6,34.445H11.187c0,0,0-1.186,0-1.242V3.387c0,0,0.733,0,0.791,0H67.6v29.816 C67.6,33.261,67.6,34.445,67.6,34.445z"/> <circle fill="#476472" cx="39.505" cy="1.58" r="0.564"/> <g> <path fill="#32475A" d="M13.838,37.328c-0.057,0.054-0.17,0.109-0.226,0.109c-1.015,0-1.974,0-2.99,0 c-0.056,0-0.056-0.057,0-0.109c0.112-0.115,0.17-0.227,0.283-0.398c0.056-0.055,0.168-0.111,0.226-0.111c0.958,0,1.974,0,2.934,0 c0.055,0,0.055,0.058,0.055,0.111C14.007,37.044,13.894,37.155,13.838,37.328z"/> <path fill="#32475A" d="M18.181,37.328c-0.055,0.054-0.113,0.109-0.224,0.109c-1.017,0-1.976,0-2.991,0 c-0.055,0-0.113-0.057-0.055-0.109c0.055-0.115,0.168-0.227,0.224-0.398c0.057-0.055,0.17-0.111,0.226-0.111 c0.959,0,1.975,0,2.934,0c0.057,0,0.113,0.058,0.057,0.111C18.351,37.044,18.294,37.155,18.181,37.328z"/> <path fill="#32475A" d="M22.3,37.328c-0.056,0.054-0.113,0.109-0.168,0.109c-1.017,0-1.974,0-2.991,0 c-0.055,0-0.113-0.057-0.055-0.109c0.055-0.115,0.112-0.227,0.226-0.398c0.056-0.055,0.113-0.111,0.168-0.111 c0.959,0,1.974,0,2.933,0c0.058,0,0.113,0.058,0.058,0.111C22.412,37.044,22.357,37.155,22.3,37.328z"/> <path fill="#32475A" d="M26.7,37.328c0,0.054-0.113,0.109-0.169,0.109c-1.016,0-1.974,0-2.991,0c-0.055,0-0.113-0.057-0.055-0.109 c0.055-0.115,0.113-0.227,0.168-0.398c0.057-0.055,0.113-0.111,0.17-0.111c0.958,0,1.974,0,2.934,0 c0.055,0,0.113,0.058,0.055,0.111C26.757,37.044,26.757,37.155,26.7,37.328z"/> <path fill="#32475A" d="M31.1,37.328c0,0.054-0.113,0.109-0.168,0.109c-1.015,0-1.974,0-2.991,0c-0.055,0-0.112-0.057-0.055-0.109 c0.055-0.115,0.055-0.227,0.113-0.398c0-0.055,0.113-0.111,0.168-0.111c0.959,0,1.974,0,2.934,0c0.057,0,0.113,0.058,0.113,0.111 C31.157,37.044,31.1,37.155,31.1,37.328z"/> <path fill="#32475A" d="M35.445,37.328c0,0.054-0.058,0.109-0.171,0.109c-1.015,0-1.974,0-2.989,0 c-0.055,0-0.113-0.057-0.113-0.109c0-0.115,0.058-0.227,0.058-0.398c0-0.055,0.055-0.111,0.168-0.111c0.959,0,1.974,0,2.933,0 c0.056,0,0.113,0.058,0.113,0.111C35.5,37.044,35.5,37.155,35.445,37.328z"/> <path fill="#32475A" d="M39.563,37.328c0,0.054-0.058,0.109-0.113,0.109c-1.017,0-1.974,0-2.991,0 c-0.056,0-0.113-0.057-0.113-0.109c0-0.115,0-0.227,0.057-0.398c0-0.055,0.056-0.111,0.113-0.111c0.959,0,1.974,0,2.934,0 c0.055,0,0.113,0.058,0.113,0.111C39.563,37.044,39.563,37.155,39.563,37.328z"/> <path fill="#32475A" d="M43.963,37.328c0,0.054-0.059,0.109-0.115,0.109c-1.015,0-1.972,0-2.986,0 c-0.057,0-0.114-0.057-0.114-0.109c0-0.115,0-0.227,0-0.398c0-0.055,0.058-0.111,0.114-0.111c0.957,0,1.973,0,2.935,0 c0.054,0,0.11,0.058,0.11,0.111C43.906,37.044,43.906,37.155,43.963,37.328z"/> <path fill="#32475A" d="M48.307,37.328c0,0.054,0,0.109-0.111,0.109c-1.016,0-1.977,0-2.99,0c-0.059,0-0.115-0.057-0.169-0.109 c0-0.115-0.058-0.227-0.058-0.398c0-0.055,0.058-0.111,0.11-0.111c0.961,0,1.976,0,2.935,0c0.057,0,0.115,0.058,0.172,0.111 C48.248,37.044,48.307,37.155,48.307,37.328z"/> <path fill="#32475A" d="M52.425,37.328c0,0.054,0,0.109-0.056,0.109c-1.016,0-1.977,0-2.991,0c-0.058,0-0.11-0.057-0.169-0.109 c0-0.115-0.057-0.227-0.057-0.398c0-0.055,0-0.111,0.113-0.111c0.957,0,1.973,0,2.935,0c0.054,0,0.169,0.058,0.169,0.111 C52.369,37.044,52.369,37.155,52.425,37.328z"/> <path fill="#32475A" d="M56.826,37.328c0.054,0.054,0,0.109-0.059,0.109c-1.015,0-1.976,0-2.99,0 c-0.057,0-0.168-0.057-0.168-0.109c-0.059-0.115-0.059-0.227-0.114-0.398c0-0.055,0-0.111,0.057-0.111c0.962,0,1.978,0,2.935,0 c0.058,0,0.168,0.058,0.168,0.111C56.711,37.044,56.77,37.155,56.826,37.328z"/> <path fill="#32475A" d="M61.169,37.328c0.058,0.054,0,0.109-0.058,0.109c-1.016,0-1.973,0-2.991,0 c-0.054,0-0.168-0.057-0.168-0.109c-0.058-0.115-0.111-0.227-0.169-0.398c-0.057-0.055,0-0.111,0.058-0.111 c0.957,0,1.972,0,2.935,0c0.054,0,0.168,0.058,0.168,0.111C61.055,37.044,61.111,37.155,61.169,37.328z"/> <path fill="#32475A" d="M65.285,37.328c0.058,0.054,0.058,0.109-0.057,0.109c-1.016,0-1.974,0-2.987,0 c-0.058,0-0.169-0.057-0.228-0.109c-0.057-0.115-0.113-0.227-0.226-0.398c-0.058-0.055,0-0.111,0.058-0.111 c0.957,0,1.973,0,2.934,0c0.055,0,0.169,0.058,0.227,0.111C65.117,37.044,65.229,37.155,65.285,37.328z"/> <path fill="#32475A" d="M69.686,37.328c0.059,0.054,0.059,0.109,0,0.109c-1.015,0-1.973,0-2.99,0 c-0.053,0-0.168-0.057-0.223-0.109c-0.058-0.115-0.173-0.227-0.226-0.398c-0.058-0.055-0.058-0.111,0.053-0.111 c0.962,0,1.978,0,2.935,0c0.058,0,0.173,0.058,0.227,0.111C69.518,37.044,69.575,37.155,69.686,37.328z"/> <path fill="#32475A" d="M12.992,38.568c-0.057,0.111-0.17,0.17-0.282,0.17c-1.017,0-2.031,0-3.046,0 c-0.058,0-0.113-0.059-0.058-0.17c0.171-0.226,0.339-0.45,0.507-0.619c0.058-0.116,0.17-0.174,0.284-0.174 c0.958,0,1.974,0,2.934,0c0.055,0,0.113,0.058,0.055,0.174C13.273,38.118,13.105,38.344,12.992,38.568z"/> <path fill="#32475A" d="M17.505,38.568c-0.058,0.111-0.17,0.17-0.226,0.17c-1.015,0-2.032,0-3.046,0 c-0.055,0-0.113-0.059-0.055-0.17c0.113-0.226,0.281-0.45,0.395-0.619c0.055-0.116,0.168-0.174,0.226-0.174 c0.959,0,1.974,0,2.934,0c0.055,0,0.113,0.058,0.055,0.174C17.731,38.118,17.618,38.344,17.505,38.568z"/> <path fill="#32475A" d="M21.737,38.568c-0.057,0.111-0.113,0.17-0.226,0.17c-1.017,0-2.032,0-3.047,0 c-0.057,0-0.113-0.059-0.057-0.17c0.113-0.226,0.226-0.45,0.339-0.619c0.056-0.116,0.168-0.174,0.226-0.174 c0.959,0,1.974,0,2.934,0c0.055,0,0.112,0.058,0.055,0.174C21.906,38.118,21.847,38.344,21.737,38.568z"/> <path fill="#32475A" d="M26.25,38.568c-0.058,0.111-0.113,0.17-0.226,0.17c-1.017,0-2.032,0-3.047,0 c-0.057,0-0.113-0.059-0.057-0.17c0.113-0.226,0.17-0.45,0.283-0.619c0.056-0.116,0.112-0.174,0.224-0.174 c0.959,0,1.976,0,2.934,0c0.058,0,0.113,0.058,0.113,0.174C26.419,38.118,26.305,38.344,26.25,38.568z"/> <path fill="#32475A" d="M30.76,38.568c0,0.111-0.11,0.17-0.168,0.17c-1.015,0-2.032,0-3.046,0c-0.056,0-0.113-0.059-0.113-0.17 c0.057-0.226,0.113-0.45,0.226-0.619c0-0.116,0.113-0.174,0.226-0.174c0.959,0,1.974,0,2.934,0c0.055,0,0.113,0.058,0.113,0.174 C30.874,38.118,30.819,38.344,30.76,38.568z"/> <path fill="#32475A" d="M35.331,38.568c0,0.111-0.113,0.17-0.168,0.17c-1.018,0-2.032,0-3.047,0c-0.057,0-0.113-0.059-0.113-0.17 c0.056-0.226,0.113-0.45,0.113-0.619c0-0.116,0.113-0.174,0.168-0.174c0.959,0,1.974,0,2.934,0c0.055,0,0.113,0.058,0.113,0.174 C35.387,38.118,35.331,38.344,35.331,38.568z"/> <path fill="#32475A" d="M39.505,38.568c0,0.111-0.055,0.17-0.168,0.17c-1.017,0-2.032,0-3.046,0c-0.058,0-0.171-0.059-0.113-0.17 c0-0.226,0.055-0.45,0.055-0.619c0-0.116,0.058-0.174,0.17-0.174c0.959,0,1.974,0,2.934,0c0.056,0,0.168,0.058,0.168,0.174 C39.563,38.118,39.563,38.344,39.505,38.568z"/> <path fill="#32475A" d="M44.074,38.568c0,0.111-0.055,0.17-0.111,0.17c-1.015,0-2.029,0-3.049,0c-0.053,0-0.168-0.059-0.168-0.17 c0-0.226,0-0.45,0-0.619c0-0.116,0.059-0.174,0.168-0.174c0.962,0,1.977,0,2.934,0c0.059,0,0.174,0.058,0.174,0.174 C44.021,38.118,44.021,38.344,44.074,38.568z"/> <path fill="#32475A" d="M48.589,38.568c0,0.111-0.058,0.17-0.114,0.17c-1.016,0-2.029,0-3.045,0c-0.058,0-0.168-0.059-0.168-0.17 c0-0.226-0.058-0.45-0.058-0.619c0-0.116,0.058-0.174,0.11-0.174c0.961,0,1.977,0,2.934,0c0.059,0,0.173,0.058,0.173,0.174 C48.475,38.118,48.531,38.344,48.589,38.568z"/> <path fill="#32475A" d="M52.82,38.568c0,0.111,0,0.17-0.113,0.17c-1.016,0-2.03,0-3.045,0c-0.059,0-0.174-0.059-0.174-0.17 c-0.053-0.226-0.109-0.45-0.168-0.619c0-0.116,0.059-0.174,0.115-0.174c0.957,0,1.973,0,2.935,0c0.056,0,0.168,0.058,0.168,0.174 C52.648,38.118,52.764,38.344,52.82,38.568z"/> <path fill="#32475A" d="M57.332,38.568c0.057,0.111,0,0.17-0.059,0.17c-1.016,0-2.029,0-3.045,0c-0.058,0-0.168-0.059-0.226-0.17 c-0.058-0.226-0.169-0.45-0.226-0.619c-0.059-0.116,0-0.174,0.113-0.174c0.957,0,1.973,0,2.935,0c0.054,0,0.168,0.058,0.222,0.174 C57.163,38.118,57.221,38.344,57.332,38.568z"/> <path fill="#32475A" d="M61.848,38.568c0.053,0.111,0,0.17-0.059,0.17c-1.016,0-2.029,0-3.048,0c-0.054,0-0.169-0.059-0.228-0.17 c-0.111-0.226-0.168-0.45-0.279-0.619c-0.058-0.116,0-0.174,0.059-0.174c0.957,0,1.973,0,2.934,0c0.055,0,0.168,0.058,0.224,0.174 C61.62,38.118,61.732,38.344,61.848,38.568z"/> <path fill="#32475A" d="M66.074,38.568c0.058,0.111,0.058,0.17-0.055,0.17c-1.015,0-2.033,0-3.047,0 c-0.057,0-0.17-0.059-0.228-0.17c-0.11-0.226-0.226-0.45-0.337-0.619c-0.059-0.116,0-0.174,0.058-0.174c0.958,0,1.974,0,2.935,0 c0.054,0,0.168,0.058,0.227,0.174C65.795,38.118,65.963,38.344,66.074,38.568z"/> <path fill="#32475A" d="M70.59,38.568c0.057,0.111,0.057,0.17-0.059,0.17c-1.016,0-2.029,0-3.045,0 c-0.057,0-0.225-0.059-0.282-0.17c-0.168-0.226-0.283-0.45-0.452-0.619c-0.059-0.116-0.059-0.174,0.059-0.174 c0.957,0,1.977,0,2.934,0c0.058,0,0.227,0.058,0.283,0.174C70.307,38.118,70.475,38.344,70.59,38.568z"/> <path fill="#32475A" d="M12.089,39.865c-0.056,0.115-0.169,0.173-0.282,0.173c-1.015,0-2.087,0-3.102,0 c-0.113,0-0.113-0.058-0.057-0.173c0.17-0.223,0.339-0.448,0.507-0.621c0.058-0.11,0.17-0.168,0.284-0.168c1.015,0,2.03,0,3.046,0 c0.056,0,0.113,0.058,0.056,0.168C12.427,39.417,12.259,39.643,12.089,39.865z"/> <path fill="#32475A" d="M16.772,39.865c-0.057,0.115-0.17,0.173-0.226,0.173c-1.015,0-2.087,0-3.102,0 c-0.113,0-0.113-0.058-0.058-0.173c0.113-0.223,0.281-0.448,0.395-0.621c0.057-0.11,0.17-0.168,0.283-0.168 c1.015,0,2.029,0,3.047,0c0.055,0,0.112,0.058,0.055,0.168C17.053,39.417,16.885,39.643,16.772,39.865z"/> <path fill="#32475A" d="M21.172,39.865c-0.057,0.115-0.168,0.173-0.226,0.173c-1.015,0-2.087,0-3.102,0 c-0.113,0-0.113-0.058-0.058-0.173c0.113-0.223,0.226-0.448,0.339-0.621c0.055-0.11,0.168-0.168,0.226-0.168 c1.015,0,2.03,0,3.046,0c0.055,0,0.113,0.058,0.055,0.168C21.341,39.417,21.227,39.643,21.172,39.865z"/> <path fill="#32475A" d="M25.798,39.865c-0.057,0.115-0.113,0.173-0.226,0.173c-1.015,0-2.087,0-3.102,0 c-0.113,0-0.113-0.058-0.113-0.173c0.113-0.223,0.168-0.448,0.281-0.621c0.056-0.11,0.113-0.168,0.226-0.168 c1.015,0,2.03,0,3.046,0c0.055,0,0.113,0.058,0.113,0.168C25.966,39.417,25.911,39.643,25.798,39.865z"/> <path fill="#32475A" d="M30.479,39.865c0,0.115-0.113,0.173-0.168,0.173c-1.017,0-2.087,0-3.104,0 c-0.113,0-0.113-0.058-0.113-0.173c0.058-0.223,0.113-0.448,0.226-0.621c0-0.11,0.113-0.168,0.226-0.168c1.015,0,2.031,0,3.046,0 c0.058,0,0.113,0.058,0.113,0.168C30.593,39.417,30.537,39.643,30.479,39.865z"/> <path fill="#32475A" d="M35.163,39.865c0,0.115-0.113,0.173-0.171,0.173c-1.015,0-2.087,0-3.102,0 c-0.112,0-0.17-0.058-0.112-0.173c0.055-0.223,0.112-0.448,0.112-0.621c0-0.11,0.113-0.168,0.169-0.168c1.015,0,2.031,0,3.046,0 c0.058,0,0.168,0.058,0.113,0.168C35.219,39.417,35.163,39.643,35.163,39.865z"/> <path fill="#32475A" d="M39.505,39.865c0,0.115-0.055,0.173-0.168,0.173c-1.017,0-2.087,0-3.104,0 c-0.113,0-0.168-0.058-0.113-0.173c0-0.223,0.058-0.448,0.058-0.621c0-0.11,0.055-0.168,0.168-0.168c1.017,0,2.031,0,3.046,0 c0.057,0,0.17,0.058,0.17,0.168C39.505,39.417,39.505,39.643,39.505,39.865z"/> <path fill="#32475A" d="M44.189,39.865c0,0.115-0.059,0.173-0.168,0.173c-1.02,0-2.088,0-3.106,0c-0.11,0-0.168-0.058-0.168-0.173 c0-0.223,0-0.448,0-0.621c0-0.11,0.058-0.168,0.168-0.168c1.021,0,2.034,0,3.049,0c0.058,0,0.168,0.058,0.168,0.168 C44.131,39.417,44.131,39.643,44.189,39.865z"/> <path fill="#32475A" d="M48.868,39.865c0,0.115-0.054,0.173-0.11,0.173c-1.015,0-2.088,0-3.104,0 c-0.114,0-0.168-0.058-0.168-0.173c0-0.223-0.057-0.448-0.057-0.621c0-0.11,0.057-0.168,0.109-0.168c1.016,0,2.034,0,3.049,0 c0.059,0,0.169,0.058,0.169,0.168C48.758,39.417,48.814,39.643,48.868,39.865z"/> <path fill="#32475A" d="M53.215,39.865c0,0.115,0,0.173-0.113,0.173c-1.017,0-2.088,0-3.104,0c-0.111,0-0.168-0.058-0.168-0.173 c-0.059-0.223-0.115-0.448-0.169-0.621c0-0.11,0.054-0.168,0.11-0.168c1.016,0,2.029,0,3.049,0c0.054,0,0.168,0.058,0.226,0.168 C53.046,39.417,53.157,39.643,53.215,39.865z"/> <path fill="#32475A" d="M57.895,39.865c0.059,0.115,0,0.173-0.11,0.173c-1.015,0-2.087,0-3.103,0 c-0.115,0-0.168-0.058-0.227-0.173c-0.057-0.223-0.168-0.448-0.227-0.621c-0.058-0.11,0-0.168,0.111-0.168c1.02,0,2.033,0,3.049,0 c0.057,0,0.168,0.058,0.227,0.168C57.672,39.417,57.783,39.643,57.895,39.865z"/> <path fill="#32475A" d="M62.521,39.865c0.058,0.115,0,0.173-0.055,0.173c-1.018,0-2.087,0-3.105,0 c-0.11,0-0.168-0.058-0.221-0.173c-0.115-0.223-0.174-0.448-0.283-0.621c-0.06-0.11,0-0.168,0.057-0.168c1.016,0,2.029,0,3.045,0 c0.057,0,0.168,0.058,0.227,0.168C62.295,39.417,62.409,39.643,62.521,39.865z"/> <path fill="#32475A" d="M66.921,39.865c0.058,0.115,0.058,0.173-0.054,0.173c-1.016,0-2.088,0-3.105,0 c-0.111,0-0.169-0.058-0.223-0.173c-0.114-0.223-0.227-0.448-0.341-0.621c-0.058-0.11,0-0.168,0.058-0.168 c1.016,0,2.029,0,3.044,0c0.058,0,0.228,0.058,0.283,0.168C66.643,39.417,66.752,39.643,66.921,39.865z"/> <path fill="#32475A" d="M71.547,39.865c0.059,0.115,0.059,0.173-0.054,0.173c-1.019,0-2.087,0-3.104,0 c-0.111,0-0.224-0.058-0.281-0.173c-0.168-0.223-0.282-0.448-0.45-0.621c-0.058-0.11-0.058-0.168,0.057-0.168 c1.017,0,2.03,0,3.045,0c0.058,0,0.228,0.058,0.283,0.168C71.268,39.417,71.436,39.643,71.547,39.865z"/> <path fill="#32475A" d="M20.72,41.448c-0.055,0.11-0.168,0.169-0.226,0.169c-4.343,0-8.63,0-12.975,0 c-0.113,0-0.113-0.059-0.056-0.169c0.168-0.226,0.337-0.452,0.508-0.62c0.055-0.116,0.168-0.17,0.281-0.17 c4.231,0,8.461,0,12.693,0c0.113,0,0.113,0.054,0.113,0.17C20.946,40.996,20.833,41.223,20.72,41.448z"/> <path fill="#32475A" d="M25.233,41.448c-0.056,0.11-0.113,0.169-0.226,0.169c-1.07,0-2.143,0-3.215,0 c-0.113,0-0.113-0.059-0.113-0.169c0.113-0.226,0.168-0.452,0.281-0.62c0.057-0.116,0.113-0.17,0.226-0.17 c1.072,0,2.087,0,3.159,0c0.113,0,0.113,0.054,0.113,0.17C25.403,40.996,25.346,41.223,25.233,41.448z"/> <path fill="#32475A" d="M54.004,41.448c0,0.11,0,0.169-0.111,0.169c-9.082,0-18.167,0-27.249,0c-0.113,0-0.113-0.059-0.113-0.169 c0.056-0.226,0.113-0.452,0.226-0.62c0-0.116,0.113-0.17,0.226-0.17c8.855,0,17.769,0,26.626,0c0.111,0,0.168,0.054,0.226,0.17 C53.893,40.996,53.947,41.223,54.004,41.448z"/> <path fill="#778184" d="M53.27,44.496c0.172,0.51-0.224,0.962-0.789,0.962c-8.35,0-16.696,0-25.046,0 c-0.563,0-0.902-0.452-0.789-0.962c0.113-0.448,0.226-0.848,0.395-1.296c0.168-0.511,0.733-0.962,1.241-0.962 c7.785,0,15.569,0,23.354,0c0.567,0,1.073,0.451,1.241,0.962C52.99,43.648,53.157,44.102,53.27,44.496z"/> <path fill="#32475A" d="M58.516,41.448c0.058,0.11,0,0.169-0.111,0.169c-1.071,0-2.146,0-3.217,0c-0.11,0-0.168-0.059-0.227-0.169 c-0.053-0.226-0.168-0.452-0.227-0.62c-0.053-0.116,0-0.17,0.115-0.17c1.072,0,2.088,0,3.159,0c0.11,0,0.168,0.054,0.226,0.17 C58.348,40.996,58.462,41.223,58.516,41.448z"/> <path fill="#32475A" d="M65.627,41.448c0.053,0.11,0,0.169-0.059,0.169c-1.86,0-3.668,0-5.529,0c-0.111,0-0.168-0.059-0.227-0.169 c-0.11-0.226-0.168-0.452-0.279-0.62c-0.057-0.116,0-0.17,0.111-0.17c1.805,0,3.61,0,5.414,0c0.114,0,0.227,0.054,0.227,0.17 C65.4,40.996,65.512,41.223,65.627,41.448z"/> <path fill="#32475A" d="M73.07,41.448c0.06,0.11,0.06,0.169-0.057,0.169c-1.861,0-3.664,0-5.525,0 c-0.115,0-0.227-0.059-0.283-0.169c-0.111-0.226-0.283-0.452-0.395-0.62c-0.059-0.116,0-0.17,0.058-0.17c1.804,0,3.606,0,5.415,0 c0.111,0,0.226,0.054,0.281,0.17C72.787,40.996,72.902,41.223,73.07,41.448z"/> </g> </g>  </g><g id="ProcessOnG1018" transform="matrix(1.0,0.0,0.0,1.0,-20.0,54.875)"><text id="ProcessOnText1019" fill="#000000" font-size="13" x="58.5" y="13.325" font-family="微软雅黑" font-weight="normal" font-style="normal" text-decoration="none" family="微软雅黑" text-anchor="middle" size="13">电脑C</text></g></g><g id="ProcessOnG1020"><path id="ProcessOnPath1021" d="M122.00285339355469 292.51705169677734L203.3778533935547 292.51705169677734L203.3778533935547 292.51705169677734L269.5167854160549 292.51705169677734" stroke="#323232" stroke-width="2.0" stroke-dasharray="none" fill="none" marker-end="url(#ProcessOnMarker1022)"/></g><g id="ProcessOnG1024" transform="matrix(1.0,0.0,0.0,1.0,122.00285339355469,258.01705169677734)" opacity="1.0"><path id="ProcessOnPath1025" d="M0.0 0.0L160.0 0.0L160.0 40.0L0.0 40.0Z" stroke="none" stroke-width="0.0" stroke-dasharray="none" opacity="1.0" fill="none"/><g id="ProcessOnG1026" transform="matrix(1.0,0.0,0.0,1.0,0.0,11.875)"><text id="ProcessOnText1027" fill="#000000" font-size="13" x="79.0" y="13.325" font-family="微软雅黑" font-weight="normal" font-style="normal" text-decoration="none" family="微软雅黑" text-anchor="middle" size="13">发往电脑A的数据包</text></g></g><g id="ProcessOnG1028" transform="matrix(1.0,0.0,0.0,1.0,486.0028533935547,158.01705169677734)" opacity="1.0"><path id="ProcessOnPath1029" d="M0.0 0.0L160.0 0.0L160.0 40.0L0.0 40.0Z" stroke="none" stroke-width="0.0" stroke-dasharray="none" opacity="1.0" fill="none"/><g id="ProcessOnG1030" transform="matrix(1.0,0.0,0.0,1.0,0.0,11.875)"><text id="ProcessOnText1031" fill="#000000" font-size="13" x="79.0" y="13.325" font-family="微软雅黑" font-weight="normal" font-style="normal" text-decoration="none" family="微软雅黑" text-anchor="middle" size="13">发往电脑A的数据包</text></g></g><g id="ProcessOnG1032" transform="matrix(1.0,0.0,0.0,1.0,486.0028533935547,258.01705169677734)" opacity="1.0"><path id="ProcessOnPath1033" d="M0.0 0.0L160.0 0.0L160.0 40.0L0.0 40.0Z" stroke="none" stroke-width="0.0" stroke-dasharray="none" opacity="1.0" fill="none"/><g id="ProcessOnG1034" transform="matrix(1.0,0.0,0.0,1.0,0.0,11.875)"><text id="ProcessOnText1035" fill="#000000" font-size="13" x="79.0" y="13.325" font-family="微软雅黑" font-weight="normal" font-style="normal" text-decoration="none" family="微软雅黑" text-anchor="middle" size="13">发往电脑A的数据包</text></g></g><g id="ProcessOnG1036" transform="matrix(1.0,0.0,0.0,1.0,486.0028533935547,349.01705169677734)" opacity="1.0"><path id="ProcessOnPath1037" d="M0.0 0.0L160.0 0.0L160.0 40.0L0.0 40.0Z" stroke="none" stroke-width="0.0" stroke-dasharray="none" opacity="1.0" fill="none"/><g id="ProcessOnG1038" transform="matrix(1.0,0.0,0.0,1.0,0.0,11.875)"><text id="ProcessOnText1039" fill="#000000" font-size="13" x="79.0" y="13.325" font-family="微软雅黑" font-weight="normal" font-style="normal" text-decoration="none" family="微软雅黑" text-anchor="middle" size="13">发往电脑A的数据包</text></g></g><g id="ProcessOnG1040" transform="matrix(1.0,0.0,0.0,1.0,293.8778533935547,304.51705169677734)" opacity="1.0"><path id="ProcessOnPath1041" d="M0.0 0.0L160.0 0.0L160.0 40.0L0.0 40.0Z" stroke="none" stroke-width="0.0" stroke-dasharray="none" opacity="1.0" fill="none"/><g id="ProcessOnG1042" transform="matrix(1.0,0.0,0.0,1.0,0.0,10.625)"><text id="ProcessOnText1043" fill="#000000" font-size="15" x="79.0" y="15.375" font-family="微软雅黑" font-weight="normal" font-style="normal" text-decoration="none" family="微软雅黑" text-anchor="middle" size="15">集线器（hub）</text></g></g><g id="ProcessOnG1044" transform="matrix(1.0,0.0,0.0,1.0,288.7528533935547,280.51705169677734)" opacity="1.0"><g id="ProcessOnG1046" transform="matrix(1.795731707317073,0.0,0.0,1.6,0.0,0.0)"> <g> <polygon fill="#2A2A3D" points="80.7,0.75 80.25,0.6 2.05,0.6 1.6,0.75 3.3,0 78.5,0 "/> <path fill="#494956" d="M80.6,15H1.9C0.8,15,0,14,0,13.05v-9.9c0-1.5,1.35-2.7,2.95-2.7l76.6,0.2c1.65,0,2.95,1.2,2.95,2.7v9.9 C82.5,14.2,81.65,15,80.6,15z"/> <g> <path fill="#EAEAEA" d="M78.35,13H49.4c-0.551,0-1-0.45-1-1V5.85c0-0.55,0.449-1,1-1H78.35c0.551,0,1,0.45,1,1V12 C79.35,12.55,78.9,13,78.35,13z"/> <g> <g> <path fill="#292A2D" d="M77.15,9.4h-2.7c-0.101,0-0.15,0.05-0.15,0.15V11c0,0.1,0.05,0.15,0.15,0.15h0.3 c0.1,0,0.15,0.05,0.15,0.15v0.5c0,0.1,0.05,0.15,0.149,0.15h0.3c0.101,0,0.15,0.05,0.15,0.15l0,0c0,0.1,0.05,0.15,0.15,0.15 H75.8c0.101,0,0.15-0.05,0.15-0.15l0,0c0-0.1,0.05-0.15,0.149-0.15H76.4c0.1,0,0.149-0.05,0.149-0.15v-0.5 c0-0.1,0.05-0.15,0.15-0.15H77c0.1,0,0.15-0.05,0.15-0.15V9.55C77.3,9.45,77.25,9.4,77.15,9.4z"/> <path fill="#292A2D" d="M72.4,9.4h-2.7c-0.101,0-0.15,0.05-0.15,0.15V11c0,0.1,0.05,0.15,0.15,0.15H70 c0.1,0,0.15,0.05,0.15,0.15v0.5c0,0.1,0.05,0.15,0.149,0.15h0.3c0.101,0,0.15,0.05,0.15,0.15l0,0c0,0.1,0.05,0.15,0.15,0.15 h0.149c0.101,0,0.15-0.05,0.15-0.15l0,0c0-0.1,0.05-0.15,0.149-0.15h0.301c0.1,0,0.149-0.05,0.149-0.15v-0.5 c0-0.1,0.05-0.15,0.15-0.15h0.3c0.1,0,0.15-0.05,0.15-0.15V9.55C72.55,9.45,72.45,9.4,72.4,9.4z"/> <path fill="#292A2D" d="M67.6,9.4H64.9c-0.101,0-0.15,0.05-0.15,0.15V11c0,0.1,0.05,0.15,0.15,0.15h0.3 c0.1,0,0.149,0.05,0.149,0.15v0.5c0,0.1,0.051,0.15,0.15,0.15h0.3c0.101,0,0.15,0.05,0.15,0.15l0,0c0,0.1,0.05,0.15,0.149,0.15 h0.15c0.1,0,0.15-0.05,0.15-0.15l0,0c0-0.1,0.05-0.15,0.149-0.15h0.3c0.101,0,0.15-0.05,0.15-0.15v-0.5 c0-0.1,0.05-0.15,0.15-0.15h0.3c0.1,0,0.149-0.05,0.149-0.15V9.55C67.8,9.45,67.7,9.4,67.6,9.4z"/> <path fill="#292A2D" d="M62.85,9.4H60.15C60.05,9.4,60,9.45,60,9.55V11c0,0.1,0.05,0.15,0.15,0.15h0.3 c0.1,0,0.149,0.05,0.149,0.15v0.5c0,0.1,0.051,0.15,0.15,0.15h0.3c0.101,0,0.15,0.05,0.15,0.15l0,0c0,0.1,0.05,0.15,0.149,0.15 h0.15c0.1,0,0.15-0.05,0.15-0.15l0,0c0-0.1,0.05-0.15,0.149-0.15h0.3c0.101,0,0.15-0.05,0.15-0.15v-0.5 c0-0.1,0.05-0.15,0.15-0.15h0.3c0.1,0,0.149-0.05,0.149-0.15V9.55C63,9.45,62.95,9.4,62.85,9.4z"/> <path fill="#292A2D" d="M58.1,9.4H55.4c-0.101,0-0.15,0.05-0.15,0.15V11c0,0.1,0.05,0.15,0.15,0.15h0.3 c0.1,0,0.149,0.05,0.149,0.15v0.5c0,0.1,0.051,0.15,0.15,0.15h0.3c0.101,0,0.15,0.05,0.15,0.15l0,0c0,0.1,0.05,0.15,0.149,0.15 h0.15c0.1,0,0.15-0.05,0.15-0.15l0,0c0-0.1,0.05-0.15,0.149-0.15h0.3c0.101,0,0.15-0.05,0.15-0.15v-0.5 c0-0.1,0.05-0.15,0.15-0.15h0.3c0.1,0,0.149-0.05,0.149-0.15V9.55C58.25,9.45,58.2,9.4,58.1,9.4z"/> <path fill="#292A2D" d="M53.35,9.4H50.65c-0.101,0-0.15,0.05-0.15,0.15V11c0,0.1,0.05,0.15,0.15,0.15h0.3 c0.1,0,0.149,0.05,0.149,0.15v0.5c0,0.1,0.051,0.15,0.15,0.15h0.3c0.101,0,0.15,0.05,0.15,0.15l0,0c0,0.1,0.05,0.15,0.149,0.15 H52c0.1,0,0.15-0.05,0.15-0.15l0,0c0-0.1,0.05-0.15,0.149-0.15h0.3c0.101,0,0.15-0.05,0.15-0.15v-0.5c0-0.1,0.05-0.15,0.15-0.15 h0.3c0.1,0,0.149-0.05,0.149-0.15V9.55C53.5,9.45,53.45,9.4,53.35,9.4z"/> </g> <g> <path fill="#292A2D" d="M50.65,8.4h2.699c0.101,0,0.15-0.05,0.15-0.15V6.8c0-0.1-0.05-0.15-0.15-0.15H53 c-0.1,0-0.15-0.05-0.15-0.15V6c0-0.1-0.05-0.15-0.149-0.15h-0.3c-0.101,0-0.15-0.05-0.15-0.15l0,0c0-0.1-0.05-0.15-0.15-0.15 H51.95c-0.101,0-0.15,0.05-0.15,0.15l0,0c0,0.1-0.05,0.15-0.149,0.15H51.35C51.25,5.85,51.2,5.9,51.2,6v0.5 c0,0.1-0.05,0.15-0.15,0.15h-0.3c-0.1,0-0.15,0.05-0.15,0.15v1.45C50.45,8.35,50.55,8.4,50.65,8.4z"/> <path fill="#292A2D" d="M55.4,8.4H58.1c0.101,0,0.15-0.05,0.15-0.15V6.8c0-0.1-0.05-0.15-0.15-0.15h-0.3 c-0.1,0-0.149-0.05-0.149-0.15V6c0-0.1-0.051-0.15-0.15-0.15h-0.3c-0.101,0-0.15-0.05-0.15-0.15l0,0c0-0.1-0.05-0.15-0.149-0.15 h-0.15c-0.1,0-0.15,0.05-0.15,0.15l0,0c0,0.1-0.05,0.15-0.149,0.15h-0.3C56.05,5.85,56,5.9,56,6v0.5c0,0.1-0.05,0.15-0.15,0.15 h-0.3c-0.1,0-0.149,0.05-0.149,0.15v1.45C55.25,8.35,55.3,8.4,55.4,8.4z"/> <path fill="#292A2D" d="M60.15,8.4h2.699C62.95,8.4,63,8.35,63,8.25V6.8c0-0.1-0.05-0.15-0.15-0.15h-0.3 c-0.1,0-0.149-0.05-0.149-0.15V6c0-0.1-0.051-0.15-0.15-0.15h-0.3c-0.101,0-0.15-0.05-0.15-0.15l0,0c0-0.1-0.05-0.15-0.149-0.15 H61.5c-0.1,0-0.15,0.05-0.15,0.15l0,0c0,0.1-0.05,0.15-0.149,0.15h-0.3C60.8,5.85,60.75,5.9,60.75,6v0.5 c0,0.1-0.05,0.15-0.15,0.15h-0.3c-0.1,0-0.149,0.05-0.149,0.15v1.45C60,8.35,60.05,8.4,60.15,8.4z"/> <path fill="#292A2D" d="M64.9,8.4H67.6c0.101,0,0.15-0.05,0.15-0.15V6.8c0-0.1-0.05-0.15-0.15-0.15h-0.3 c-0.1,0-0.149-0.05-0.149-0.15V6c0-0.1-0.051-0.15-0.15-0.15h-0.3c-0.101,0-0.15-0.05-0.15-0.15l0,0c0-0.1-0.05-0.15-0.149-0.15 h-0.15c-0.1,0-0.15,0.05-0.15,0.15l0,0c0,0.1-0.05,0.15-0.149,0.15h-0.3C65.55,5.85,65.5,5.9,65.5,6v0.5 c0,0.1-0.05,0.15-0.15,0.15h-0.3c-0.1,0-0.149,0.05-0.149,0.15v1.45C64.75,8.35,64.85,8.4,64.9,8.4z"/> <path fill="#292A2D" d="M69.65,8.4h2.699c0.101,0,0.15-0.05,0.15-0.15V6.8c0-0.1-0.05-0.15-0.15-0.15h-0.3 c-0.1,0-0.149-0.05-0.149-0.15V6c0-0.1-0.051-0.15-0.15-0.15h-0.3c-0.101,0-0.15-0.05-0.15-0.15l0,0c0-0.1-0.05-0.15-0.149-0.15 H71c-0.1,0-0.15,0.05-0.15,0.15l0,0c0,0.1-0.05,0.15-0.149,0.15h-0.3C70.3,5.85,70.25,5.9,70.25,6v0.5 c0,0.1-0.05,0.15-0.15,0.15h-0.3c-0.1,0-0.149,0.05-0.149,0.15v1.45C69.5,8.35,69.6,8.4,69.65,8.4z"/> <path fill="#292A2D" d="M74.45,8.4h2.7c0.1,0,0.149-0.05,0.149-0.15V6.8c0-0.1-0.05-0.15-0.149-0.15H76.85 c-0.1,0-0.149-0.05-0.149-0.15V6c0-0.1-0.05-0.15-0.15-0.15h-0.3c-0.1,0-0.15-0.05-0.15-0.15l0,0c0-0.1-0.05-0.15-0.149-0.15 H75.8c-0.1,0-0.149,0.05-0.149,0.15l0,0c0,0.1-0.051,0.15-0.15,0.15h-0.3C75.1,5.85,75.05,5.9,75.05,6v0.5 c0,0.1-0.05,0.15-0.149,0.15H74.6c-0.1,0-0.149,0.05-0.149,0.15v1.45C74.3,8.35,74.35,8.4,74.45,8.4z"/> </g> </g> </g> <g> <path fill="#EAEAEA" d="M46,13.15H17.05c-0.55,0-1-0.45-1-1V6c0-0.55,0.45-1,1-1H46c0.55,0,1,0.45,1,1v6.15 C47,12.7,46.55,13.15,46,13.15z"/> <g> <g> <path fill="#292A2D" d="M44.75,9.55h-2.7c-0.1,0-0.149,0.05-0.149,0.15v1.45c0,0.1,0.05,0.15,0.149,0.15h0.3 c0.101,0,0.15,0.05,0.15,0.15v0.5c0,0.1,0.05,0.15,0.15,0.15H43c0.1,0,0.15,0.05,0.15,0.15l0,0c0,0.1,0.05,0.15,0.149,0.15h0.2 c0.1,0,0.15-0.05,0.15-0.15l0,0c0-0.1,0.05-0.15,0.149-0.15h0.3c0.101,0,0.15-0.05,0.15-0.15v-0.5c0-0.1,0.05-0.15,0.15-0.15 h0.3c0.1,0,0.149-0.05,0.149-0.15V9.7C44.95,9.6,44.85,9.55,44.75,9.55z"/> <path fill="#292A2D" d="M40,9.55h-2.7c-0.1,0-0.15,0.05-0.15,0.15v1.45c0,0.1,0.05,0.15,0.15,0.15h0.3 c0.1,0,0.15,0.05,0.15,0.15v0.5c0,0.1,0.05,0.15,0.15,0.15h0.3c0.1,0,0.15,0.05,0.15,0.15l0,0c0,0.1,0.05,0.15,0.15,0.15h0.15 c0.1,0,0.15-0.05,0.15-0.15l0,0c0-0.1,0.05-0.15,0.15-0.15h0.3c0.1,0,0.15-0.05,0.15-0.15v-0.5c0-0.1,0.05-0.15,0.15-0.15H40 c0.1,0,0.15-0.05,0.15-0.15V9.7C40.15,9.6,40.1,9.55,40,9.55z"/> <path fill="#292A2D" d="M35.25,9.55h-2.7c-0.1,0-0.15,0.05-0.15,0.15v1.45c0,0.1,0.05,0.15,0.15,0.15h0.3 c0.1,0,0.15,0.05,0.15,0.15v0.5c0,0.1,0.05,0.15,0.15,0.15h0.35c0.1,0,0.15,0.05,0.15,0.15l0,0c0,0.1,0.05,0.15,0.15,0.15H34 c0.1,0,0.15-0.05,0.15-0.15l0,0c0-0.1,0.05-0.15,0.15-0.15h0.3c0.1,0,0.15-0.05,0.15-0.15v-0.5c0-0.1,0.05-0.15,0.15-0.15h0.3 c0.1,0,0.15-0.05,0.15-0.15V9.7C35.4,9.6,35.35,9.55,35.25,9.55z"/> <path fill="#292A2D" d="M30.5,9.55h-2.7c-0.1,0-0.15,0.05-0.15,0.15v1.45c0,0.1,0.05,0.15,0.15,0.15h0.3 c0.1,0,0.15,0.05,0.15,0.15v0.5c0,0.1,0.05,0.15,0.15,0.15h0.3c0.1,0,0.15,0.05,0.15,0.15l0,0c0,0.1,0.05,0.15,0.15,0.15h0.15 c0.1,0,0.15-0.05,0.15-0.15l0,0c0-0.1,0.05-0.15,0.15-0.15h0.3c0.1,0,0.15-0.05,0.15-0.15v-0.5c0-0.1,0.05-0.15,0.15-0.15h0.45 c0.1,0,0.15-0.05,0.15-0.15V9.7C30.65,9.6,30.6,9.55,30.5,9.55z"/> <path fill="#292A2D" d="M25.75,9.55h-2.7c-0.1,0-0.15,0.05-0.15,0.15v1.45c0,0.1,0.05,0.15,0.15,0.15h0.3 c0.1,0,0.15,0.05,0.15,0.15v0.5c0,0.1,0.05,0.15,0.15,0.15H24c0.1,0,0.15,0.05,0.15,0.15l0,0c0,0.1,0.05,0.15,0.15,0.15h0.15 c0.1,0,0.15-0.05,0.15-0.15l0,0c0-0.1,0.05-0.15,0.15-0.15h0.3c0.1,0,0.15-0.05,0.15-0.15v-0.5c0-0.1,0.05-0.15,0.15-0.15h0.3 c0.1,0,0.15-0.05,0.15-0.15V9.7C25.9,9.6,25.8,9.55,25.75,9.55z"/> <path fill="#292A2D" d="M20.95,9.55h-2.7c-0.1,0-0.15,0.05-0.15,0.15v1.45c0,0.1,0.05,0.15,0.15,0.15h0.3 c0.1,0,0.15,0.05,0.15,0.15v0.5c0,0.1,0.05,0.15,0.15,0.15h0.3c0.1,0,0.15,0.05,0.15,0.15l0,0c0,0.1,0.05,0.15,0.15,0.15h0.15 c0.1,0,0.15-0.05,0.15-0.15l0,0c0-0.1,0.05-0.15,0.15-0.15h0.3c0.1,0,0.15-0.05,0.15-0.15v-0.5c0-0.1,0.05-0.15,0.15-0.15h0.3 c0.1,0,0.15-0.05,0.15-0.15V9.7C21.15,9.6,21.05,9.55,20.95,9.55z"/> </g> <g> <path fill="#292A2D" d="M18.25,8.55h2.7c0.1,0,0.15-0.05,0.15-0.15V6.95c0-0.1-0.05-0.15-0.15-0.15h-0.3 c-0.1,0-0.15-0.05-0.15-0.15v-0.5c0-0.1-0.05-0.15-0.15-0.15H20c-0.1,0-0.15-0.05-0.15-0.15l0,0c0-0.1-0.05-0.15-0.15-0.15 h-0.15c-0.1,0-0.15,0.05-0.15,0.15l0,0c0,0.1-0.05,0.15-0.15,0.15h-0.3c-0.1,0-0.15,0.05-0.15,0.15v0.5 c0,0.1-0.05,0.15-0.15,0.15h-0.3c-0.1,0-0.15,0.05-0.15,0.15V8.4C18.1,8.5,18.2,8.55,18.25,8.55z"/> <path fill="#292A2D" d="M23.05,8.55h2.7c0.1,0,0.15-0.05,0.15-0.15V6.95c0-0.1-0.05-0.15-0.15-0.15h-0.3 c-0.1,0-0.15-0.05-0.15-0.15v-0.5c0-0.1-0.05-0.15-0.15-0.15h-0.3c-0.1,0-0.15-0.05-0.15-0.15l0,0c0-0.1-0.05-0.15-0.15-0.15 H24.4c-0.1,0-0.15,0.05-0.15,0.15l0,0C24.25,5.95,24.2,6,24.1,6h-0.3c-0.1,0-0.15,0.05-0.15,0.15v0.5c0,0.1-0.05,0.15-0.15,0.15 h-0.3c-0.1,0-0.15,0.05-0.15,0.15V8.4C22.85,8.5,22.95,8.55,23.05,8.55z"/> <path fill="#292A2D" d="M27.8,8.55h2.7c0.1,0,0.15-0.05,0.15-0.15V6.95c0-0.1-0.05-0.15-0.15-0.15h-0.3 c-0.1,0-0.15-0.05-0.15-0.15v-0.5C30.05,6.05,30,6,29.9,6h-0.3c-0.1,0-0.15-0.05-0.15-0.15l0,0c0-0.1-0.05-0.15-0.15-0.15h-0.15 C29.05,5.7,29,5.75,29,5.85l0,0C29,5.95,28.95,6,28.85,6h-0.3c-0.1,0-0.15,0.05-0.15,0.15v0.5c0,0.1-0.05,0.15-0.15,0.15h-0.3 c-0.1,0-0.15,0.05-0.15,0.15V8.4C27.65,8.5,27.7,8.55,27.8,8.55z"/> <path fill="#292A2D" d="M32.55,8.55h2.7c0.1,0,0.15-0.05,0.15-0.15V6.95c0-0.1-0.05-0.15-0.15-0.15h-0.3 c-0.1,0-0.15-0.05-0.15-0.15v-0.5c0-0.1-0.05-0.15-0.15-0.15h-0.3c-0.1,0-0.15-0.05-0.15-0.15l0,0c0-0.1-0.05-0.15-0.15-0.15 H33.9c-0.1,0-0.15,0.05-0.15,0.15l0,0C33.75,5.95,33.7,6,33.6,6h-0.3c-0.1,0-0.15,0.05-0.15,0.15v0.5c0,0.1-0.05,0.15-0.15,0.15 h-0.3c-0.1,0-0.15,0.05-0.15,0.15V8.4C32.4,8.5,32.45,8.55,32.55,8.55z"/> <path fill="#292A2D" d="M37.3,8.55H40c0.1,0,0.15-0.05,0.15-0.15V6.95c0-0.1-0.05-0.15-0.15-0.15h-0.3 c-0.1,0-0.15-0.05-0.15-0.15v-0.5C39.55,6.05,39.5,6,39.4,6h-0.3c-0.1,0-0.15-0.05-0.15-0.15l0,0c0-0.1-0.05-0.15-0.15-0.15 h-0.15c-0.1,0-0.15,0.05-0.15,0.15l0,0c0,0.1-0.05,0.15-0.15,0.15h-0.3c-0.1,0-0.15,0.05-0.15,0.15v0.5 c0,0.1-0.05,0.15-0.15,0.15h-0.3c-0.1,0-0.15,0.05-0.15,0.15V8.4C37.15,8.5,37.2,8.55,37.3,8.55z"/> <path fill="#292A2D" d="M42.05,8.55h2.7c0.1,0,0.15-0.05,0.15-0.15V6.95c0-0.1-0.051-0.15-0.15-0.15h-0.3 c-0.101,0-0.15-0.05-0.15-0.15v-0.5C44.3,6.05,44.25,6,44.15,6H43.85C43.75,6,43.7,5.95,43.7,5.85l0,0 c0-0.1-0.05-0.15-0.15-0.15H43.4c-0.101,0-0.15,0.05-0.15,0.15l0,0C43.25,5.95,43.2,6,43.1,6h-0.3c-0.1,0-0.149,0.05-0.149,0.15 v0.5c0,0.1-0.051,0.15-0.15,0.15h-0.3c-0.101,0-0.15,0.05-0.15,0.15V8.4C41.9,8.5,42,8.55,42.05,8.55z"/> </g> </g> </g> <g> <circle fill="#ED6B39" cx="3.65" cy="6.45" r="0.8"/> <circle fill="#ED6B39" cx="6.4" cy="6.45" r="0.8"/> <circle fill="#ED6B39" cx="9.15" cy="6.45" r="0.8"/> <circle fill="#ED6B39" cx="11.95" cy="6.45" r="0.8"/> </g> <g> <circle fill="#ED6B39" cx="3.65" cy="9.05" r="0.8"/> <circle fill="#ED6B39" cx="6.4" cy="9.05" r="0.8"/> <circle fill="#ED6B39" cx="9.15" cy="9.05" r="0.8"/> <circle fill="#ED6B39" cx="11.95" cy="9.05" r="0.8"/> </g> <g> <circle fill="#ED6B39" cx="3.65" cy="11.65" r="0.8"/> <circle fill="#ED6B39" cx="6.4" cy="11.65" r="0.8"/> <circle fill="#ED6B39" cx="9.15" cy="11.65" r="0.8"/> <circle fill="#ED6B39" cx="11.95" cy="11.65" r="0.8"/> </g> <path fill="#27333F" d="M7.75,3.2H2.7c-0.05,0-0.1-0.05-0.1-0.1l0,0C2.6,3.05,2.65,3,2.7,3h5.05c0.05,0,0.1,0.05,0.1,0.1l0,0 C7.85,3.15,7.8,3.2,7.75,3.2z"/> <path fill="#27333F" d="M7.75,4.3H2.7c-0.05,0-0.1-0.05-0.1-0.1l0,0c0-0.05,0.05-0.1,0.1-0.1h5.05c0.05,0,0.1,0.05,0.1,0.1l0,0 C7.85,4.3,7.8,4.3,7.75,4.3z"/> </g>  </g></g><g id="ProcessOnG1047"><path id="ProcessOnPath1048" d="M436.0028533935547 292.51705169677734L539.2528533935547 292.51705169677734L539.2528533935547 193.01705169677734L627.2667854160549 193.01705169677734" stroke="#323232" stroke-width="2.0" stroke-dasharray="none" fill="none" marker-end="url(#ProcessOnMarker1049)"/></g><g id="ProcessOnG1051"><path id="ProcessOnPath1052" d="M436.0028533935547 292.51705169677734L539.2528533935547 292.51705169677734L539.2528533935547 292.51705169677734L627.2667854160549 292.51705169677734" stroke="#323232" stroke-width="2.0" stroke-dasharray="none" fill="none" marker-end="url(#ProcessOnMarker1053)"/></g><g id="ProcessOnG1055"><path id="ProcessOnPath1056" d="M436.0028533935547 292.51705169677734L539.2528533935547 292.51705169677734L539.2528533935547 386.01705169677734L627.2667854160549 386.01705169677734" stroke="#323232" stroke-width="2.0" stroke-dasharray="none" fill="none" marker-end="url(#ProcessOnMarker1057)"/></g></g></g></svg>